<svg width="82" height="80" viewBox="0 0 82 80" fill="white" xmlns="http://www.w3.org/2000/svg">

<path d="M19.1545 8.20924L19.4301 8.62642L19.1545 8.20924ZM73.3288 16.9161C73.5995 16.9704 73.8631 16.795 73.9174 16.5243L74.803 12.1123C74.8573 11.8415 74.6819 11.578 74.4111 11.5236C74.1404 11.4693 73.8769 11.6447 73.8225 11.9155L73.0353 15.8372L69.1136 15.0501C68.8428 14.9957 68.5793 15.1712 68.5249 15.4419C68.4706 15.7126 68.646 15.9762 68.9168 16.0305L73.3288 16.9161ZM80.5003 39.7955C80.2925 46.0383 78.1101 55.7333 72.2393 63.8536C66.3857 71.9502 56.8552 78.5 41.8733 78.5V79.5C57.1997 79.5 67.0223 72.7765 73.0497 64.4395C79.0601 56.1261 81.2868 46.2273 81.4997 39.8288L80.5003 39.7955ZM41.8733 78.5C22.5808 78.5 9.65797 65.8801 5.21037 50.8108C0.759311 35.7298 4.81839 18.279 19.4301 8.62642L18.8789 7.79205C3.83007 17.7334 -0.298619 35.678 4.25127 51.0939C8.80462 66.5215 22.0715 79.5 41.8733 79.5V78.5ZM19.4301 8.62642C32.8471 -0.236911 45.2984 0.394193 54.8738 3.93105C64.4836 7.48063 71.1799 13.9523 73.011 16.7029L73.8434 16.1488C71.8879 13.2111 65.0161 6.61126 55.2203 2.993C45.3901 -0.637988 32.5983 -1.27104 18.8789 7.79205L19.4301 8.62642Z" />
<circle cx="6.5" cy="54.5" r="6" fill="transparent" stroke="white"/>
</svg>
