<svg width="82" height="80" viewBox="0 0 82 80" fill="none" xmlns="http://www.w3.org/2000/svg">
<g clip-path="url(#clip0_22_2)">
<path d="M6.5 60.5C9.81371 60.5 12.5 57.8137 12.5 54.5C12.5 51.1863 9.81371 48.5 6.5 48.5C3.18629 48.5 0.5 51.1863 0.5 54.5C0.5 57.8137 3.18629 60.5 6.5 60.5Z" stroke="white"/>
<path fill-rule="evenodd" clip-rule="evenodd" d="M73.9172 16.5243C73.8629 16.795 73.5993 16.9704 73.3286 16.9161L68.9166 16.0305C68.6458 15.9762 68.4704 15.7126 68.5247 15.4419C68.5791 15.1712 68.8426 14.9957 69.1134 15.0501L72.2396 15.6776C69.6827 12.574 63.4342 7.0931 54.8736 3.93107C45.2982 0.394209 32.8469 -0.236896 19.4299 8.62644C5.46811 17.8497 1.14107 34.1928 4.66688 48.7852C4.3426 48.8891 4.03032 49.0199 3.73267 49.1749C0.0601897 34.2119 4.45034 17.3235 18.8787 7.79207C32.5981 -1.27102 45.3899 -0.637972 55.2201 2.99302C64.0897 6.26919 70.5621 11.9898 73.1584 15.223L73.8223 11.9155C73.8767 11.6447 74.1402 11.4693 74.4109 11.5236C74.6817 11.578 74.8571 11.8415 74.8028 12.1123L73.9172 16.5243ZM8.17725 60.2624C14.5742 71.3366 26.1685 79.5 41.8731 79.5C57.1995 79.5 67.0221 72.7765 73.0495 64.4395C79.0599 56.1261 81.2866 46.2273 81.4995 39.8288L80.5001 39.7955C80.2923 46.0383 78.1099 55.7333 72.2391 63.8536C66.3855 71.9502 56.855 78.5 41.8731 78.5C26.6379 78.5 15.375 70.63 9.12117 59.8987C8.81978 60.0453 8.50428 60.1674 8.17725 60.2624Z" fill="white"/>
</g>
<defs>
<clipPath id="clip0_22_2">
<rect width="82" height="80" fill="white"/>
</clipPath>
</defs>
</svg>
