<svg width="440" height="360" viewBox="0 0 440 360" fill="none" xmlns="http://www.w3.org/2000/svg">
<g clip-path="url(#clip0_785_9962)">
<path d="M2.66082 293.152C4.26171 294.204 6.96699 294.392 10.8719 293.581C14.7509 292.775 19.6563 291.013 25.4707 288.359C37.0927 283.053 52.2248 274.236 69.8304 262.586C105.035 239.29 150.058 204.714 196.548 164.38C243.038 124.046 282.178 85.6031 307.877 56.0591C320.729 41.2844 330.205 28.7505 335.562 19.3261C338.242 14.6111 339.876 10.6991 340.398 7.68672C340.924 4.65416 340.304 2.65667 338.703 1.60438C337.102 0.55209 334.397 0.363934 330.492 1.17521C326.613 1.9811 321.707 3.7428 315.893 6.39741C304.271 11.7035 289.139 20.5201 271.533 32.17C236.329 55.4656 191.306 90.0416 144.816 130.376C98.3259 170.71 59.186 209.153 33.4871 238.697C20.6352 253.472 11.1584 266.005 5.80179 275.43C3.12189 280.145 1.48776 284.057 0.96569 287.069C0.440102 290.102 1.05993 292.099 2.66082 293.152Z" stroke="#151515"/>
<path d="M54.8291 350.715C55.4965 351.177 56.4706 351.43 57.8115 351.43C59.1569 351.43 60.8299 351.173 62.8273 350.651C66.8213 349.607 71.9935 347.53 78.2125 344.497C90.6429 338.433 107.143 328.602 126.57 315.754C165.416 290.061 215.901 252.345 268.811 208.695C321.722 165.046 367.028 123.738 397.505 92.2415C412.746 76.4907 424.266 63.2057 431.176 53.3141C434.633 48.3651 436.92 44.2879 437.95 41.1878C438.465 39.6375 438.658 38.3547 438.542 37.3409C438.426 36.3304 438.009 35.6183 437.341 35.1555C436.674 34.6926 435.7 34.4398 434.359 34.4401C433.014 34.4404 431.341 34.6966 429.343 35.219C425.349 36.2635 420.177 38.3399 413.958 41.3734C401.528 47.4367 385.027 57.268 365.601 70.1163C326.754 95.809 276.27 133.525 223.359 177.175C170.448 220.824 125.142 262.132 94.6652 293.629C79.4245 309.379 67.9041 322.664 60.9942 332.556C57.5371 337.505 55.2502 341.582 54.2202 344.682C53.7052 346.233 53.5126 347.515 53.6286 348.529C53.7443 349.54 54.1617 350.252 54.8291 350.715Z" stroke="#C4C4C4"/>
<ellipse cx="43" cy="277.5" rx="9" ry="8.5" fill="#D1966B"/>
<path fill-rule="evenodd" clip-rule="evenodd" d="M392.654 320.011L373 316.438L392.832 312.832L396.438 293L400.011 312.654L419.875 316.438L400.188 320.188L396.438 339.875L392.654 320.011Z" fill="#D1966B"/>
<path fill-rule="evenodd" clip-rule="evenodd" d="M390.899 99.4858L401.847 91.3153L404.895 104.707L406.983 91.1309L418.484 98.5017L410.314 87.5547L423.707 84.5059L410.255 82.4369L417.502 70.9175L406.426 79.0405L403.505 65.6949L401.542 79.2131L389.916 71.8992L398.039 82.9753L384.695 85.8959L398.339 87.8776L390.899 99.4858Z" fill="#C4C4C4"/>
<path fill-rule="evenodd" clip-rule="evenodd" d="M97.8033 34.0986L89 32.498L97.8831 30.8829L99.4981 22L101.099 30.8033L109.996 32.498L101.178 34.1777L99.4981 42.9963L97.8033 34.0986Z" fill="#C4C4C4"/>
<circle cx="55.5" cy="131.5" r="55.5" fill="#F3F3F3"/>
<path d="M13.6727 133.761C14.5255 133.743 15.203 133.038 15.1859 132.185C15.1688 131.332 14.4635 130.655 13.6106 130.672C12.7578 130.689 12.0803 131.394 12.0974 132.247C12.1146 133.1 12.8198 133.778 13.6727 133.761Z" fill="#C4C4C4"/>
<path d="M97.6141 132.302C98.467 132.285 99.1444 131.58 99.1273 130.727C99.1102 129.874 98.4049 129.196 97.552 129.214C96.6992 129.231 96.0217 129.936 96.0388 130.789C96.056 131.642 96.7612 132.319 97.6141 132.302Z" fill="#C4C4C4"/>
<path d="M68.4342 126.636L56.2722 123.059C56.0217 122.985 55.7549 122.985 55.5044 123.059L43.3423 126.636C42.7686 126.805 42.375 127.328 42.375 127.922C42.375 128.516 42.7686 129.039 43.3423 129.208L47.7805 130.514L47.7805 136.497C47.7805 136.501 47.7805 136.504 47.7805 136.508C47.7805 139.082 52.1481 139.995 55.8883 139.995C59.6285 139.995 63.9962 139.082 63.9962 136.508C63.9962 136.508 63.9962 136.508 63.9962 136.508C63.9962 136.507 63.9962 136.507 63.9962 136.507V130.513L66.6991 129.718V138.654C66.6991 139.395 67.3041 139.995 68.0504 139.995C68.7966 139.995 69.4016 139.395 69.4016 138.654V127.922C69.4016 127.328 69.008 126.805 68.4342 126.636ZM55.8883 125.744L63.294 127.922L55.8883 130.1L48.4827 127.922L55.8883 125.744ZM61.2935 136.284C60.7943 136.674 58.8632 137.313 55.8883 137.313C52.9135 137.313 50.9822 136.674 50.483 136.284V131.308L55.5044 132.785C55.6297 132.822 55.759 132.841 55.8883 132.841C56.0176 132.841 56.147 132.822 56.2723 132.785L61.2936 131.308L61.2935 136.284Z" fill="#D1966B"/>
<path d="M12.5003 118.045L13.3662 118.277L12.5369 121.373L11.671 121.141L12.5003 118.045ZM11.7119 120.988L17.8356 122.63L17.5551 123.677L11.4314 122.036L11.7119 120.988ZM12.749 117.117L18.8727 118.758L18.5907 119.811L12.467 118.17L12.749 117.117Z" fill="#C4C4C4"/>
<path d="M21.1614 113.946C20.9662 114.342 20.7226 114.668 20.4306 114.925C20.1368 115.176 19.8102 115.357 19.451 115.467C19.0935 115.574 18.7164 115.606 18.3196 115.563C17.9228 115.519 17.5248 115.399 17.1254 115.202L16.9047 115.093C16.4423 114.865 16.0644 114.594 15.7709 114.279C15.474 113.963 15.2572 113.625 15.1207 113.266C14.9843 112.907 14.9246 112.546 14.9418 112.185C14.959 111.823 15.0462 111.483 15.2034 111.164C15.4038 110.757 15.6466 110.442 15.9319 110.216C16.2188 109.988 16.535 109.841 16.8806 109.776C17.2226 109.71 17.5859 109.715 17.9706 109.791C18.3519 109.866 18.7421 110.002 19.1415 110.199L19.5777 110.414L17.484 114.66L16.6905 114.269L18.3048 110.995L18.2313 110.959C17.9721 110.848 17.701 110.78 17.4179 110.753C17.1365 110.723 16.8712 110.767 16.622 110.884C16.3729 111 16.1663 111.225 16.0022 111.558C15.8933 111.779 15.8404 112.005 15.8435 112.237C15.843 112.468 15.901 112.695 16.0175 112.918C16.1341 113.141 16.3056 113.354 16.532 113.557C16.7585 113.76 17.0434 113.947 17.3867 114.116L17.6074 114.225C17.8771 114.358 18.1492 114.446 18.4237 114.49C18.6964 114.529 18.9575 114.52 19.207 114.465C19.4582 114.406 19.6856 114.298 19.8891 114.142C20.0943 113.981 20.2626 113.768 20.3939 113.502C20.5632 113.159 20.6365 112.833 20.6138 112.526C20.5912 112.218 20.5065 111.918 20.3599 111.623L21.1178 111.265C21.243 111.479 21.343 111.723 21.4179 111.995C21.4928 112.267 21.5145 112.567 21.4832 112.896C21.4535 113.221 21.3463 113.571 21.1614 113.946Z" fill="#C4C4C4"/>
<path d="M20.0336 105.769L26.0295 110.371L25.3661 111.236L18.4035 105.892L19.0098 105.102L20.0336 105.769ZM24.1396 103.536L24.2373 103.611C24.6029 103.891 24.9089 104.195 25.1553 104.522C25.3986 104.847 25.5707 105.181 25.6716 105.524C25.7748 105.864 25.7973 106.204 25.7388 106.543C25.6804 106.883 25.5311 107.209 25.291 107.522C25.0461 107.841 24.777 108.083 24.4838 108.247C24.1906 108.411 23.8779 108.501 23.5457 108.516C23.2136 108.532 22.8672 108.483 22.5068 108.369C22.1487 108.252 21.7788 108.076 21.397 107.842L20.8765 107.443C20.5332 107.12 20.2536 106.795 20.0377 106.467C19.8218 106.138 19.6742 105.811 19.595 105.484C19.5151 105.152 19.5136 104.823 19.5906 104.498C19.6646 104.171 19.8228 103.849 20.0653 103.533C20.3078 103.217 20.585 102.984 20.8968 102.834C21.2055 102.682 21.5371 102.609 21.8917 102.616C22.2463 102.622 22.6137 102.704 22.994 102.863C23.3735 103.017 23.7554 103.241 24.1396 103.536ZM23.5739 104.475L23.4763 104.4C23.2253 104.208 22.9696 104.053 22.7091 103.937C22.4456 103.819 22.1874 103.751 21.9345 103.734C21.6808 103.712 21.4406 103.749 21.2137 103.846C20.9838 103.94 20.7785 104.105 20.5978 104.341C20.4313 104.558 20.3235 104.775 20.2742 104.994C20.2273 105.209 20.2246 105.421 20.266 105.63C20.3044 105.837 20.3768 106.037 20.4832 106.232C20.5889 106.422 20.7139 106.599 20.8582 106.764L22.062 107.688C22.3265 107.792 22.5975 107.863 22.8753 107.898C23.1499 107.932 23.4174 107.901 23.6778 107.805C23.9351 107.707 24.172 107.517 24.3883 107.235C24.5667 107.003 24.672 106.766 24.7043 106.525C24.736 106.278 24.7082 106.035 24.621 105.796C24.5361 105.554 24.4039 105.322 24.2244 105.1C24.0417 104.876 23.8248 104.668 23.5739 104.475Z" fill="#C4C4C4"/>
<path d="M30.4913 102.138C30.1594 102.429 29.8095 102.637 29.4415 102.762C29.0738 102.882 28.7029 102.924 28.3288 102.889C27.9577 102.851 27.5971 102.736 27.2471 102.544C26.8971 102.352 26.5753 102.089 26.2818 101.754L26.1196 101.569C25.7796 101.181 25.5343 100.786 25.3836 100.383C25.2304 99.9772 25.1594 99.5822 25.1708 99.1981C25.1821 98.8141 25.265 98.4582 25.4193 98.1306C25.5737 97.803 25.7845 97.5219 26.0517 97.2875C26.3924 96.9887 26.7376 96.7898 27.0873 96.6909C27.4399 96.5894 27.7882 96.5749 28.1322 96.6472C28.4736 96.7166 28.8074 96.8603 29.1335 97.0782C29.4571 97.2932 29.7657 97.5681 30.0592 97.9029L30.3798 98.2685L26.8204 101.391L26.2372 100.726L28.9816 98.3182L28.9275 98.2565C28.7304 98.0553 28.5061 97.8884 28.2546 97.7557C28.0061 97.6203 27.7444 97.5589 27.4696 97.5714C27.1948 97.5838 26.9178 97.7124 26.6388 97.9571C26.4538 98.1194 26.3183 98.3085 26.2321 98.5243C26.1434 98.7372 26.1102 98.969 26.1325 99.2196C26.1549 99.4702 26.2317 99.7327 26.3632 100.007C26.4947 100.281 26.6866 100.563 26.9389 100.85L27.1011 101.035C27.2994 101.262 27.517 101.447 27.7537 101.593C27.9909 101.733 28.2353 101.825 28.487 101.869C28.7417 101.911 28.993 101.898 29.241 101.832C29.4919 101.762 29.7289 101.63 29.9521 101.434C30.2399 101.181 30.4321 100.909 30.5288 100.616C30.6255 100.324 30.6625 100.013 30.6398 99.685L31.4769 99.6443C31.5106 99.8901 31.51 100.153 31.475 100.433C31.44 100.713 31.3451 100.999 31.1904 101.291C31.0386 101.58 30.8055 101.862 30.4913 102.138Z" fill="#C4C4C4"/>
<path d="M34.6069 91.5724L35.055 92.3487L32.2793 93.9517L31.8312 93.1753L34.6069 91.5724ZM31.9682 93.0962L35.1373 98.5866L34.1986 99.1287L31.0294 93.6383L31.9682 93.0962ZM35.4391 91.0918L38.6082 96.5822L37.6644 97.1272L34.4952 91.6368L35.4391 91.0918Z" fill="#C4C4C4"/>
<path d="M39.6039 92.7677L39.5606 92.6401C39.4137 92.2074 39.3404 91.7847 39.3406 91.3721C39.3396 90.9558 39.411 90.5707 39.5549 90.2166C39.6975 89.8588 39.9114 89.5469 40.1965 89.281C40.4804 89.0113 40.8314 88.8055 41.2494 88.6636C41.6711 88.5204 42.0766 88.4694 42.4659 88.5104C42.8577 88.5465 43.219 88.6631 43.5499 88.8601C43.8833 89.0522 44.1762 89.3137 44.4288 89.6445C44.6801 89.9717 44.8791 90.3517 45.026 90.7844L45.0693 90.9121C45.2162 91.3448 45.2895 91.7675 45.2893 92.1801C45.289 92.5926 45.2158 92.9785 45.0695 93.3375C44.9256 93.6916 44.7117 94.0035 44.4278 94.2731C44.1464 94.5378 43.7948 94.7417 43.3731 94.8849C42.9514 95.0281 42.5465 95.081 42.1584 95.0436C41.7691 95.0026 41.4078 94.886 41.0744 94.6939C40.7435 94.4969 40.4524 94.2348 40.2011 93.9076C39.9498 93.5805 39.7508 93.2005 39.6039 92.7677ZM40.5871 92.2916L40.6304 92.4192C40.7321 92.7188 40.8632 92.9898 41.0239 93.2323C41.1833 93.471 41.3678 93.6683 41.5774 93.824C41.7907 93.9784 42.0247 94.0784 42.2795 94.1239C42.5329 94.1657 42.8021 94.1383 43.0869 94.0416C43.368 93.9461 43.5946 93.8053 43.7665 93.619C43.9409 93.4278 44.0638 93.2066 44.1354 92.9555C44.2069 92.7043 44.2332 92.4355 44.2144 92.149C44.198 91.8576 44.1389 91.5621 44.0373 91.2625L43.994 91.1349C43.8935 90.839 43.7618 90.5723 43.5987 90.3348C43.438 90.0923 43.251 89.8939 43.0377 89.7394C42.8269 89.58 42.5941 89.4775 42.3393 89.432C42.0883 89.3853 41.8204 89.4102 41.5356 89.5069C41.2544 89.6024 41.0267 89.7457 40.8523 89.9369C40.6816 90.1269 40.5593 90.3499 40.4853 90.606C40.4138 90.8572 40.3881 91.1279 40.4082 91.418C40.427 91.7045 40.4867 91.9957 40.5871 92.2916Z" fill="#C4C4C4"/>
<path d="M47.9871 87.0733L49.0619 86.9317L49.2786 89.2966C49.3338 89.8961 49.3339 90.4201 49.2786 90.8686C49.2234 91.3171 49.1288 91.7058 48.9948 92.0347C48.8602 92.3597 48.698 92.6391 48.5082 92.8729C48.3222 93.1062 48.1241 93.3076 47.9139 93.4772L47.3794 93.5475L47.293 92.6666L47.513 92.6317C47.621 92.4638 47.7245 92.2926 47.8237 92.118C47.9223 91.9395 48.0075 91.7333 48.0791 91.4993C48.1503 91.2614 48.1976 90.9774 48.2211 90.6473C48.248 90.3129 48.2403 89.91 48.198 89.4389L47.9871 87.0733ZM48.2543 87.0381L52.0363 86.5401L52.8636 92.8254L51.7889 92.9669L51.0923 87.6749L48.3851 88.0314L48.2543 87.0381ZM47.0192 92.6967L53.5549 91.8361L53.9151 94.5721L52.8403 94.7136L52.5964 92.8606L48.2102 93.4381L48.4541 95.2912L47.3735 95.4335L47.0192 92.6967Z" fill="#C4C4C4"/>
<path d="M60.8433 86.7261L60.7846 87.6206L57.8612 87.429L57.5052 92.8605L56.4235 92.7896L56.8381 86.4635L60.8433 86.7261Z" fill="#C4C4C4"/>
<path d="M63.7971 90.462L63.832 90.3318C63.9503 89.8903 64.1241 89.4981 64.3535 89.1552C64.5838 88.8085 64.8572 88.5279 65.1734 88.3134C65.4907 88.0951 65.8418 87.9546 66.2266 87.8919C66.6124 87.8255 67.0185 87.8494 67.4448 87.9637C67.8749 88.0789 68.2405 88.2618 68.5414 88.5123C68.847 88.7601 69.0827 89.0578 69.2484 89.4055C69.4188 89.7504 69.5172 90.1306 69.5433 90.5461C69.5706 90.9578 69.525 91.3844 69.4068 91.8259L69.3719 91.956C69.2536 92.3975 69.0798 92.7897 68.8504 93.1327C68.6211 93.4756 68.3459 93.7557 68.0248 93.973C67.7085 94.1875 67.3575 94.3279 66.9717 94.3944C66.5907 94.4581 66.1851 94.4323 65.755 94.317C65.3248 94.2017 64.9588 94.0207 64.6569 93.774C64.356 93.5235 64.1203 93.2258 63.9499 92.8808C63.7842 92.5331 63.6878 92.1534 63.6606 91.7417C63.6334 91.33 63.6789 90.9034 63.7971 90.462ZM64.8791 90.6124L64.8442 90.7426C64.7623 91.0482 64.7208 91.3465 64.7197 91.6373C64.7197 91.9245 64.7635 92.191 64.8513 92.4369C64.9428 92.6839 65.0819 92.8971 65.2684 93.0765C65.4559 93.2521 65.6949 93.3788 65.9854 93.4567C66.2722 93.5336 66.5388 93.5423 66.7852 93.483C67.0363 93.4209 67.2614 93.3053 67.4604 93.1362C67.6594 92.9671 67.8306 92.7582 67.974 92.5095C68.1223 92.2581 68.2373 91.9795 68.3192 91.6739L68.3541 91.5437C68.4349 91.2419 68.4735 90.9469 68.4698 90.6588C68.4709 90.3679 68.4257 90.099 68.3341 89.852C68.2473 89.6023 68.1107 89.3877 67.9242 89.2083C67.7415 89.0299 67.5049 88.9018 67.2143 88.824C66.9276 88.7471 66.6586 88.7397 66.4074 88.8018C66.16 88.8649 65.9344 88.9824 65.7307 89.1543C65.5317 89.3234 65.36 89.5341 65.2155 89.7866C65.0721 90.0353 64.9599 90.3105 64.8791 90.6124Z" fill="#C4C4C4"/>
<path d="M75.8799 91.3467L73.0763 97.0332L72.0989 96.5511L74.9025 90.8646L75.8799 91.3467ZM77.7874 92.2876L77.3987 93.0759L72.6432 90.7302L73.0319 89.9419L77.7874 92.2876Z" fill="#C4C4C4"/>
<path d="M78.8671 96.7612L78.9492 96.6543C79.2274 96.2916 79.538 95.9958 79.8811 95.7667C80.2266 95.5345 80.5865 95.3798 80.9608 95.3027C81.3374 95.2224 81.7155 95.227 82.095 95.3163C82.4768 95.4025 82.8428 95.58 83.1929 95.8487C83.5462 96.1199 83.8139 96.4287 83.996 96.7753C84.1835 97.1212 84.2873 97.4864 84.3073 97.8711C84.3328 98.2551 84.2781 98.644 84.1433 99.0379C84.0109 99.4287 83.8056 99.8054 83.5274 100.168L83.4453 100.275C83.1671 100.638 82.8565 100.933 82.5133 101.163C82.1702 101.392 81.8088 101.545 81.429 101.623C81.0548 101.7 80.6767 101.696 80.2949 101.609C79.9185 101.522 79.5537 101.343 79.2005 101.072C78.8472 100.801 78.5784 100.494 78.3939 100.15C78.2118 99.8038 78.108 99.4385 78.0825 99.0546C78.0625 98.6699 78.1188 98.2822 78.2512 97.8914C78.3836 97.5005 78.5889 97.1238 78.8671 96.7612ZM79.809 97.3142L79.727 97.4211C79.5344 97.6722 79.3819 97.9319 79.2696 98.2002C79.1597 98.4655 79.0982 98.7285 79.0851 98.9894C79.0752 99.2526 79.1221 99.5028 79.2257 99.7399C79.3317 99.9739 79.504 100.182 79.7426 100.366C79.9781 100.546 80.221 100.656 80.4713 100.696C80.7271 100.735 80.9793 100.714 81.2278 100.634C81.4764 100.554 81.7145 100.426 81.9422 100.251C82.1753 100.076 82.3882 99.8625 82.5808 99.6115L82.6628 99.5045C82.8531 99.2566 83.0016 98.9988 83.1084 98.7312C83.2208 98.4628 83.2819 98.197 83.2918 97.9338C83.3072 97.6699 83.2631 97.4193 83.1595 97.1822C83.059 96.9475 82.8894 96.7385 82.6508 96.5554C82.4153 96.3747 82.1697 96.2649 81.9139 96.2262C81.6611 96.1898 81.4078 96.212 81.1538 96.2929C80.9053 96.3729 80.666 96.502 80.4359 96.68C80.2082 96.8548 79.9992 97.0663 79.809 97.3142Z" fill="#C4C4C4"/>
<path d="M87.1031 104.639L85.7319 103.075L86.3761 102.494L87.4963 103.772C87.7178 104.024 87.9268 104.212 88.1235 104.336C88.3228 104.462 88.5097 104.524 88.6842 104.522C88.8588 104.52 89.0195 104.454 89.1663 104.325C89.2808 104.225 89.3588 104.112 89.4002 103.988C89.4471 103.863 89.456 103.728 89.4268 103.582C89.4005 103.434 89.3375 103.276 89.2378 103.109C89.1436 102.942 89.0127 102.763 88.8454 102.573L87.9299 101.528L83.8243 105.13L83.1097 104.315L87.8761 100.134L89.5061 101.993C89.7714 102.295 89.9831 102.59 90.1414 102.878C90.3023 103.168 90.4031 103.446 90.4438 103.711C90.49 103.977 90.4708 104.228 90.3861 104.463C90.3015 104.699 90.1476 104.914 89.9244 105.11C89.7805 105.236 89.6182 105.326 89.4375 105.381C89.2567 105.436 89.0662 105.45 88.866 105.423C88.6657 105.396 88.4598 105.327 88.2485 105.216C88.04 105.103 87.8317 104.945 87.6235 104.743L87.1031 104.639ZM85.0063 106.478L83.3762 104.619L84.3924 104.444L85.667 105.898C85.8653 106.124 86.058 106.288 86.2452 106.389C86.4352 106.487 86.6153 106.526 86.7854 106.507C86.961 106.488 87.1237 106.413 87.2735 106.282C87.4233 106.15 87.5175 106 87.5563 105.831C87.6006 105.662 87.585 105.478 87.5094 105.28C87.4368 105.078 87.3014 104.865 87.1031 104.639L86.0177 103.401L86.6774 102.838L88.0332 104.384L88.0453 104.895C88.2539 105.175 88.3837 105.453 88.4347 105.731C88.4857 106.008 88.4687 106.267 88.3837 106.508C88.3017 106.746 88.1637 106.95 87.9699 107.12C87.7467 107.316 87.5126 107.446 87.2676 107.51C87.0252 107.578 86.7771 107.582 86.5236 107.524C86.2729 107.463 86.0191 107.346 85.7621 107.171C85.508 106.994 85.256 106.763 85.0063 106.478Z" fill="#C4C4C4"/>
<path d="M94.005 108.15L88.5144 111.32L87.9726 110.382L93.4631 107.211L94.005 108.15ZM96.0846 111.752L91.4358 110.966L90.6772 109.652L91.4173 109.035L92.0382 110.111L95.4255 110.611L96.0846 111.752ZM90.0111 113.913L91.3319 110.458L92.3604 110.669L90.6994 115.106L90.0111 113.913Z" fill="#C4C4C4"/>
<path d="M93.6598 120.209L96.7504 119.16C96.9871 119.079 97.1761 118.962 97.3173 118.807C97.4635 118.654 97.5526 118.467 97.5848 118.245C97.617 118.024 97.586 117.775 97.4918 117.497C97.4039 117.238 97.2824 117.026 97.1271 116.86C96.973 116.698 96.805 116.586 96.6231 116.524C96.4424 116.466 96.2689 116.465 96.1024 116.521L95.7541 115.495C95.9686 115.422 96.2001 115.405 96.4486 115.445C96.6971 115.484 96.9416 115.578 97.1821 115.728C97.4275 115.88 97.6497 116.085 97.8488 116.343C98.0528 116.604 98.2163 116.915 98.3393 117.278C98.4874 117.714 98.544 118.124 98.509 118.507C98.4752 118.894 98.3406 119.233 98.105 119.523C97.8743 119.816 97.5352 120.038 97.0876 120.19L94.2911 121.14C94.0913 121.207 93.8843 121.296 93.6699 121.406C93.4568 121.52 93.2808 121.639 93.1419 121.765L93.0531 121.795L92.6897 120.724C92.7905 120.632 92.9339 120.538 93.12 120.442C93.3097 120.345 93.4896 120.267 93.6598 120.209ZM96.3334 119.499L95.6159 119.755L95.2638 118.718C95.1646 118.426 95.0521 118.173 94.9261 117.96C94.8039 117.746 94.6702 117.577 94.525 117.453C94.3798 117.329 94.2231 117.25 94.0549 117.216C93.8905 117.182 93.7157 117.195 93.5308 117.258C93.3421 117.322 93.1846 117.423 93.0581 117.561C92.9316 117.699 92.851 117.869 92.8162 118.07C92.7864 118.274 92.8142 118.502 92.8996 118.753C93.0063 119.068 93.167 119.323 93.3818 119.518C93.5965 119.713 93.824 119.848 94.064 119.923C94.3053 120.002 94.5185 120.017 94.7035 119.966L94.3584 120.572C94.1943 120.599 93.9984 120.587 93.7708 120.537C93.5433 120.486 93.3099 120.394 93.0708 120.261C92.8366 120.13 92.6176 119.953 92.4138 119.729C92.215 119.508 92.0603 119.234 91.9499 118.909C91.8118 118.502 91.7702 118.118 91.8251 117.757C91.8812 117.4 92.0135 117.091 92.2221 116.83C92.4357 116.572 92.7089 116.386 93.0418 116.273C93.3637 116.164 93.668 116.131 93.9548 116.174C94.2453 116.215 94.5121 116.327 94.7552 116.508C95.002 116.689 95.2245 116.931 95.4225 117.235C95.6206 117.539 95.7893 117.896 95.9286 118.307L96.3334 119.499Z" fill="#C4C4C4"/>
<path d="M98.5026 144.955L97.6367 144.723L98.466 141.627L99.332 141.859L98.5026 144.955ZM99.291 142.012L93.1673 140.37L93.4478 139.323L99.5715 140.964L99.291 142.012ZM98.254 145.883L92.1302 144.242L92.4122 143.189L98.536 144.83L98.254 145.883Z" fill="#C4C4C4"/>
<path d="M89.8425 149.054C90.0377 148.658 90.2813 148.332 90.5733 148.075C90.8671 147.824 91.1937 147.643 91.5529 147.533C91.9104 147.426 92.2875 147.394 92.6843 147.437C93.0811 147.481 93.4791 147.601 93.8785 147.798L94.0992 147.907C94.5616 148.135 94.9395 148.406 95.233 148.721C95.5299 149.037 95.7467 149.375 95.8832 149.734C96.0197 150.093 96.0793 150.454 96.0621 150.815C96.0449 151.177 95.9577 151.517 95.8005 151.836C95.6001 152.243 95.3573 152.558 95.072 152.784C94.7851 153.012 94.4689 153.159 94.1233 153.224C93.7813 153.29 93.418 153.285 93.0333 153.209C92.652 153.134 92.2618 152.998 91.8624 152.801L91.4263 152.586L93.5199 148.34L94.3134 148.731L92.6991 152.005L92.7726 152.041C93.0318 152.152 93.3029 152.22 93.586 152.247C93.8674 152.277 94.1327 152.233 94.3819 152.116C94.631 152 94.8376 151.775 95.0017 151.442C95.1106 151.221 95.1635 150.995 95.1604 150.763C95.1609 150.532 95.1029 150.305 94.9864 150.082C94.8698 149.859 94.6983 149.646 94.4719 149.443C94.2454 149.24 93.9605 149.053 93.6172 148.884L93.3965 148.775C93.1268 148.642 92.8547 148.554 92.5802 148.51C92.3075 148.471 92.0464 148.48 91.7969 148.535C91.5457 148.594 91.3183 148.702 91.1148 148.858C90.9096 149.019 90.7413 149.232 90.61 149.498C90.4407 149.841 90.3674 150.167 90.3901 150.474C90.4127 150.782 90.4974 151.082 90.644 151.377L89.8861 151.735C89.7609 151.521 89.6609 151.277 89.586 151.005C89.5111 150.733 89.4894 150.433 89.5207 150.104C89.5504 149.779 89.6576 149.429 89.8425 149.054Z" fill="#C4C4C4"/>
<path d="M90.9693 157.231L84.9735 152.629L85.6369 151.764L92.5995 157.108L91.9931 157.898L90.9693 157.231ZM86.8633 159.464L86.7657 159.389C86.4 159.109 86.094 158.805 85.8476 158.478C85.6044 158.153 85.4323 157.819 85.3314 157.476C85.2281 157.136 85.2057 156.796 85.2641 156.457C85.3225 156.117 85.4718 155.791 85.712 155.478C85.9569 155.159 86.2259 154.917 86.5191 154.753C86.8123 154.589 87.125 154.499 87.4572 154.484C87.7894 154.468 88.1357 154.517 88.4961 154.631C88.8542 154.748 89.2241 154.924 89.6059 155.158L90.1264 155.557C90.4697 155.88 90.7494 156.205 90.9653 156.533C91.1812 156.862 91.3287 157.189 91.4079 157.516C91.4878 157.848 91.4893 158.177 91.4123 158.502C91.3384 158.829 91.1802 159.151 90.9376 159.467C90.6951 159.783 90.4179 160.016 90.1061 160.166C89.7975 160.318 89.4658 160.391 89.1112 160.384C88.7566 160.378 88.3892 160.296 88.0089 160.137C87.6294 159.983 87.2475 159.759 86.8633 159.464ZM87.4291 158.525L87.5267 158.6C87.7777 158.792 88.0334 158.947 88.2938 159.063C88.5573 159.181 88.8155 159.249 89.0685 159.266C89.3221 159.288 89.5624 159.251 89.7892 159.154C90.0191 159.06 90.2244 158.895 90.4051 158.659C90.5716 158.442 90.6794 158.225 90.7287 158.006C90.7756 157.791 90.7784 157.579 90.7369 157.37C90.6986 157.163 90.6262 156.963 90.5197 156.768C90.414 156.578 90.289 156.401 90.1447 156.236L88.9409 155.312C88.6765 155.208 88.4054 155.137 88.1277 155.102C87.8531 155.068 87.5856 155.099 87.3251 155.195C87.0678 155.293 86.831 155.483 86.6146 155.765C86.4363 155.997 86.3309 156.234 86.2986 156.475C86.267 156.722 86.2948 156.965 86.382 157.204C86.4668 157.446 86.599 157.678 86.7786 157.9C86.9612 158.124 87.1781 158.332 87.4291 158.525Z" fill="#C4C4C4"/>
<path d="M80.5126 160.862C80.8445 160.571 81.1944 160.363 81.5625 160.238C81.9301 160.118 82.301 160.076 82.6751 160.111C83.0462 160.149 83.4068 160.264 83.7568 160.456C84.1068 160.648 84.4286 160.911 84.7221 161.246L84.8844 161.431C85.2243 161.819 85.4696 162.214 85.6203 162.617C85.7735 163.023 85.8445 163.418 85.8331 163.802C85.8218 164.186 85.7389 164.542 85.5846 164.869C85.4302 165.197 85.2194 165.478 84.9522 165.712C84.6115 166.011 84.2663 166.21 83.9166 166.309C83.564 166.411 83.2157 166.425 82.8717 166.353C82.5303 166.283 82.1965 166.14 81.8704 165.922C81.5468 165.707 81.2383 165.432 80.9447 165.097L80.6241 164.731L84.1835 161.609L84.7667 162.274L82.0223 164.682L82.0764 164.744C82.2735 164.945 82.4978 165.112 82.7493 165.244C82.9978 165.38 83.2595 165.441 83.5343 165.429C83.8092 165.416 84.0861 165.288 84.3651 165.043C84.5501 164.881 84.6856 164.691 84.7718 164.476C84.8605 164.263 84.8937 164.031 84.8714 163.78C84.8491 163.53 84.7722 163.267 84.6407 162.993C84.5093 162.719 84.3173 162.437 84.065 162.15L83.9028 161.965C83.7045 161.738 83.487 161.553 83.2502 161.407C83.013 161.267 82.7686 161.175 82.5169 161.131C82.2622 161.089 82.0109 161.102 81.7629 161.168C81.512 161.238 81.275 161.37 81.0518 161.566C80.764 161.819 80.5718 162.091 80.4751 162.384C80.3784 162.676 80.3414 162.987 80.3641 163.315L79.527 163.356C79.4933 163.11 79.4939 162.847 79.5289 162.567C79.5639 162.287 79.6588 162.001 79.8135 161.709C79.9654 161.42 80.1984 161.138 80.5126 160.862Z" fill="#C4C4C4"/>
<path d="M76.396 171.428L75.9479 170.651L78.7236 169.048L79.1718 169.825L76.396 171.428ZM79.0348 169.904L75.8656 164.413L76.8044 163.871L79.9735 169.362L79.0348 169.904ZM75.5638 171.908L72.3947 166.418L73.3385 165.873L76.5077 171.363L75.5638 171.908Z" fill="#C4C4C4"/>
<path d="M71.399 170.232L71.4423 170.36C71.5892 170.793 71.6625 171.215 71.6623 171.628C71.6633 172.044 71.5919 172.429 71.448 172.783C71.3054 173.141 71.0916 173.453 70.8064 173.719C70.5225 173.989 70.1716 174.194 69.7536 174.336C69.3319 174.48 68.9263 174.531 68.537 174.49C68.1452 174.453 67.7839 174.337 67.453 174.14C67.1197 173.948 66.8267 173.686 66.5742 173.355C66.3229 173.028 66.1238 172.648 65.9769 172.216L65.9336 172.088C65.7867 171.655 65.7134 171.233 65.7137 170.82C65.7139 170.407 65.7872 170.022 65.9335 169.662C66.0773 169.308 66.2912 168.997 66.5751 168.727C66.8566 168.462 67.2081 168.258 67.6298 168.115C68.0515 167.972 68.4564 167.919 68.8445 167.956C69.2338 167.997 69.5952 168.114 69.9285 168.306C70.2594 168.503 70.5505 168.765 70.8018 169.092C71.0531 169.42 71.2522 169.8 71.399 170.232ZM70.4158 170.708L70.3725 170.581C70.2709 170.281 70.1397 170.01 69.979 169.768C69.8196 169.529 69.6351 169.332 69.4255 169.176C69.2122 169.022 68.9782 168.922 68.7235 168.876C68.47 168.834 68.2009 168.862 67.916 168.958C67.6349 169.054 67.4084 169.195 67.2364 169.381C67.062 169.572 66.9391 169.793 66.8676 170.045C66.796 170.296 66.7697 170.565 66.7885 170.851C66.8049 171.142 66.864 171.438 66.9657 171.738L67.009 171.865C67.1094 172.161 67.2412 172.428 67.4043 172.665C67.5649 172.908 67.7519 173.106 67.9652 173.261C68.1761 173.42 68.4089 173.522 68.6636 173.568C68.9146 173.615 69.1825 173.59 69.4674 173.493C69.7485 173.398 69.9762 173.254 70.1506 173.063C70.3213 172.873 70.4436 172.65 70.5176 172.394C70.5891 172.143 70.6148 171.872 70.5947 171.582C70.5759 171.295 70.5163 171.004 70.4158 170.708Z" fill="#C4C4C4"/>
<path d="M63.0158 175.927L61.9411 176.068L61.7244 173.703C61.6691 173.104 61.6691 172.58 61.7243 172.131C61.7795 171.683 61.8742 171.294 62.0082 170.965C62.1427 170.64 62.3049 170.361 62.4948 170.127C62.6808 169.894 62.8789 169.692 63.089 169.523L63.6235 169.452L63.7099 170.333L63.4899 170.368C63.382 170.536 63.2784 170.707 63.1793 170.882C63.0806 171.06 62.9954 171.267 62.9238 171.501C62.8527 171.739 62.8053 172.023 62.7818 172.353C62.7549 172.687 62.7626 173.09 62.8049 173.561L63.0158 175.927ZM62.7486 175.962L58.9666 176.46L58.1393 170.175L59.2141 170.033L59.9106 175.325L62.6178 174.969L62.7486 175.962ZM63.9837 170.303L57.448 171.164L57.0879 168.428L58.1626 168.286L58.4065 170.139L62.7927 169.562L62.5488 167.709L63.6294 167.567L63.9837 170.303Z" fill="#C4C4C4"/>
<path d="M50.1597 176.274L50.2183 175.38L53.1418 175.572L53.4977 170.14L54.5794 170.211L54.1649 176.537L50.1597 176.274Z" fill="#C4C4C4"/>
<path d="M47.2058 172.539L47.1709 172.669C47.0526 173.11 46.8788 173.502 46.6495 173.845C46.4191 174.192 46.1458 174.473 45.8295 174.687C45.5122 174.905 45.1612 175.046 44.7764 175.109C44.3906 175.175 43.9845 175.151 43.5581 175.037C43.128 174.922 42.7625 174.739 42.4616 174.488C42.1559 174.24 41.9202 173.943 41.7546 173.595C41.5841 173.25 41.4858 172.87 41.4596 172.454C41.4324 172.043 41.4779 171.616 41.5962 171.175L41.631 171.044C41.7493 170.603 41.9231 170.211 42.1525 169.868C42.3818 169.525 42.6571 169.245 42.9781 169.028C43.2944 168.813 43.6454 168.673 44.0312 168.606C44.4123 168.542 44.8178 168.568 45.248 168.683C45.6781 168.799 46.0441 168.98 46.346 169.226C46.6469 169.477 46.8826 169.775 47.0531 170.12C47.2187 170.467 47.3152 170.847 47.3424 171.259C47.3696 171.67 47.324 172.097 47.2058 172.539ZM46.1239 172.388L46.1587 172.258C46.2406 171.952 46.2821 171.654 46.2832 171.363C46.2833 171.076 46.2394 170.809 46.1516 170.564C46.0601 170.317 45.9211 170.103 45.7346 169.924C45.5471 169.748 45.308 169.622 45.0175 169.544C44.7308 169.467 44.4642 169.458 44.2178 169.517C43.9666 169.58 43.7415 169.695 43.5425 169.864C43.3436 170.033 43.1724 170.242 43.0289 170.491C42.8807 170.742 42.7656 171.021 42.6837 171.327L42.6489 171.457C42.568 171.759 42.5294 172.054 42.5331 172.342C42.532 172.633 42.5773 172.902 42.6688 173.148C42.7556 173.398 42.8922 173.613 43.0787 173.792C43.2614 173.971 43.4981 174.099 43.7886 174.177C44.0753 174.253 44.3443 174.261 44.5955 174.199C44.8429 174.136 45.0685 174.018 45.2722 173.846C45.4712 173.677 45.6429 173.466 45.7874 173.214C45.9309 172.965 46.043 172.69 46.1239 172.388Z" fill="#C4C4C4"/>
<path d="M35.123 171.654L37.9266 165.967L38.904 166.449L36.1004 172.136L35.123 171.654ZM33.2155 170.713L33.6042 169.925L38.3597 172.27L37.9711 173.059L33.2155 170.713Z" fill="#C4C4C4"/>
<path d="M32.1358 166.238L32.0538 166.345C31.7756 166.708 31.4649 167.004 31.1218 167.233C30.7763 167.465 30.4164 167.62 30.0421 167.697C29.6655 167.777 29.2874 167.773 28.908 167.683C28.5261 167.597 28.1601 167.419 27.81 167.151C27.4568 166.88 27.1891 166.571 27.007 166.224C26.8194 165.878 26.7156 165.513 26.6956 165.128C26.6702 164.744 26.7248 164.356 26.8596 163.962C26.9921 163.571 27.1974 163.194 27.4756 162.831L27.5576 162.725C27.8358 162.362 28.1465 162.066 28.4896 161.837C28.8327 161.608 29.1942 161.454 29.5739 161.377C29.9482 161.299 30.3262 161.304 30.7081 161.39C31.0844 161.477 31.4492 161.656 31.8025 161.927C32.1557 162.198 32.4246 162.506 32.6091 162.849C32.7912 163.196 32.8949 163.561 32.9204 163.945C32.9404 164.33 32.8842 164.717 32.7517 165.108C32.6193 165.499 32.414 165.876 32.1358 166.238ZM31.1939 165.685L31.2759 165.578C31.4685 165.327 31.621 165.068 31.7333 164.799C31.8433 164.534 31.9048 164.271 31.9178 164.01C31.9277 163.747 31.8809 163.497 31.7772 163.26C31.6712 163.026 31.4989 162.817 31.2603 162.634C31.0248 162.453 30.7819 162.343 30.5316 162.304C30.2758 162.265 30.0236 162.286 29.7751 162.366C29.5266 162.446 29.2885 162.573 29.0608 162.748C28.8276 162.924 28.6147 163.137 28.4221 163.388L28.3401 163.495C28.1499 163.743 28.0013 164.001 27.8945 164.268C27.7822 164.537 27.721 164.802 27.7111 165.066C27.6957 165.33 27.7398 165.58 27.8434 165.817C27.944 166.052 28.1135 166.261 28.3521 166.444C28.5876 166.625 28.8333 166.735 29.0891 166.773C29.3418 166.81 29.5951 166.787 29.8491 166.707C30.0977 166.627 30.337 166.498 30.567 166.32C30.7947 166.145 31.0037 165.933 31.1939 165.685Z" fill="#C4C4C4"/>
<path d="M23.8998 158.362L25.271 159.926L24.6268 160.507L23.5066 159.229C23.2852 158.976 23.0761 158.788 22.8794 158.665C22.6801 158.538 22.4932 158.476 22.3187 158.478C22.1442 158.481 21.9835 158.546 21.8366 158.675C21.7221 158.776 21.6441 158.888 21.6027 159.013C21.5558 159.137 21.547 159.272 21.5762 159.418C21.6024 159.567 21.6654 159.724 21.7651 159.891C21.8594 160.058 21.9902 160.237 22.1576 160.428L23.073 161.472L27.1786 157.871L27.8932 158.686L23.1268 162.867L21.4968 161.008C21.2316 160.705 21.0198 160.41 20.8615 160.123C20.7006 159.833 20.5998 159.555 20.5592 159.289C20.513 159.023 20.5322 158.773 20.6168 158.537C20.7014 158.302 20.8553 158.086 21.0785 157.891C21.2224 157.764 21.3848 157.674 21.5655 157.619C21.7462 157.565 21.9367 157.551 22.137 157.578C22.3372 157.605 22.5431 157.674 22.7545 157.784C22.9629 157.898 23.1712 158.055 23.3794 158.257L23.8998 158.362ZM25.9967 156.523L27.6267 158.382L26.6105 158.556L25.3359 157.102C25.1376 156.876 24.9449 156.713 24.7578 156.612C24.5677 156.513 24.3876 156.474 24.2175 156.493C24.0419 156.512 23.8792 156.587 23.7294 156.719C23.5797 156.85 23.4854 157 23.4466 157.17C23.4023 157.338 23.418 157.522 23.4935 157.721C23.5661 157.922 23.7015 158.136 23.8998 158.362L24.9852 159.6L24.3255 160.163L22.9697 158.617L22.9576 158.105C22.749 157.826 22.6192 157.547 22.5682 157.27C22.5172 156.992 22.5342 156.733 22.6192 156.492C22.7013 156.254 22.8392 156.05 23.033 155.88C23.2562 155.684 23.4903 155.554 23.7353 155.49C23.9778 155.423 24.2258 155.418 24.4794 155.476C24.73 155.537 24.9839 155.655 25.2409 155.829C25.495 156.007 25.7469 156.238 25.9967 156.523Z" fill="#C4C4C4"/>
<path d="M16.998 154.85L22.4885 151.68L23.0304 152.618L17.5398 155.789L16.998 154.85ZM14.9184 151.248L19.5671 152.034L20.3257 153.348L19.5857 153.965L18.9647 152.889L15.5774 152.389L14.9184 151.248ZM20.9918 149.087L19.671 152.542L18.6425 152.331L20.3035 147.894L20.9918 149.087Z" fill="#C4C4C4"/>
<path d="M17.3432 142.791L14.2526 143.84C14.0158 143.921 13.8268 144.038 13.6856 144.193C13.5395 144.346 13.4503 144.533 13.4181 144.755C13.386 144.976 13.417 145.225 13.5111 145.503C13.599 145.762 13.7206 145.974 13.8759 146.14C14.0299 146.302 14.1979 146.414 14.3798 146.476C14.5605 146.534 14.7341 146.535 14.9005 146.479L15.2489 147.505C15.0343 147.578 14.8028 147.595 14.5543 147.555C14.3058 147.516 14.0613 147.422 13.8209 147.272C13.5754 147.12 13.3532 146.915 13.1542 146.657C12.9502 146.396 12.7867 146.085 12.6636 145.722C12.5155 145.286 12.459 144.876 12.4939 144.493C12.5277 144.106 12.6624 143.767 12.898 143.477C13.1286 143.184 13.4677 142.962 13.9153 142.81L16.7119 141.86C16.9116 141.793 17.1187 141.704 17.333 141.594C17.5461 141.48 17.7221 141.361 17.861 141.235L17.9498 141.205L18.3132 142.276C18.2124 142.368 18.069 142.462 17.883 142.558C17.6933 142.655 17.5133 142.733 17.3432 142.791ZM14.6695 143.501L15.3871 143.245L15.7392 144.282C15.8383 144.574 15.9509 144.827 16.0768 145.04C16.199 145.254 16.3327 145.423 16.4779 145.547C16.6231 145.671 16.7798 145.75 16.948 145.784C17.1125 145.818 17.2872 145.805 17.4722 145.742C17.6608 145.678 17.8184 145.577 17.9449 145.439C18.0714 145.301 18.152 145.131 18.1867 144.93C18.2165 144.726 18.1887 144.498 18.1033 144.247C17.9966 143.932 17.8359 143.677 17.6211 143.482C17.4064 143.287 17.179 143.152 16.9389 143.077C16.6976 142.998 16.4844 142.983 16.2994 143.034L16.6445 142.428C16.8087 142.401 17.0045 142.413 17.2321 142.463C17.4597 142.514 17.693 142.606 17.9321 142.739C18.1663 142.87 18.3853 143.047 18.5891 143.271C18.7879 143.492 18.9426 143.766 19.0531 144.091C19.1911 144.498 19.2327 144.882 19.1779 145.243C19.1217 145.6 18.9894 145.909 18.7808 146.17C18.5672 146.428 18.294 146.614 17.9611 146.727C17.6393 146.836 17.3349 146.869 17.0481 146.826C16.7576 146.785 16.4908 146.673 16.2477 146.492C16.0009 146.311 15.7785 146.069 15.5804 145.765C15.3824 145.461 15.2137 145.104 15.0743 144.693L14.6695 143.501Z" fill="#C4C4C4"/>
</g>
<defs>
<clipPath id="clip0_785_9962">
<rect width="440" height="360" fill="white"/>
</clipPath>
</defs>
</svg>
