<svg width="23" height="23" viewBox="0 0 23 23" fill="none" xmlns="http://www.w3.org/2000/svg">
<g clip-path="url(#clip0_785_10780)">
<path d="M1.38692 4.9008L4.98633 6.20969V9.6582C4.98633 10.2248 5.3656 11.0169 7.17245 11.5728C8.3379 11.9314 9.87477 12.1289 11.5 12.1289C13.1252 12.1289 14.6621 11.9314 15.8275 11.5728C17.6344 11.0169 18.0137 10.2248 18.0137 9.6582V6.20969L20.709 5.22958V10.1074C20.709 10.4796 21.0107 10.7812 21.3828 10.7812C21.7549 10.7812 22.0566 10.4796 22.0566 10.1074V4.26758C22.0566 3.98421 21.8794 3.73117 21.6131 3.63431L11.7303 0.0405645C11.5815 -0.0135215 11.4185 -0.0135215 11.2697 0.0405645L1.38692 3.63431C1.12062 3.73112 0.943359 3.98421 0.943359 4.26758C0.943359 4.55095 1.12062 4.80399 1.38692 4.9008ZM16.666 9.63871C16.6119 9.74239 16.2533 10.0629 15.2068 10.35C14.1931 10.6281 12.8767 10.7812 11.5 10.7812C10.1233 10.7812 8.80689 10.6281 7.79318 10.35C6.74673 10.0629 6.38812 9.74239 6.33398 9.63871V6.69978L11.2697 8.49459C11.4185 8.54868 11.5815 8.54868 11.7303 8.49459L16.666 6.69974V9.63871ZM11.5 1.39083L17.5581 3.59375H11.5C11.1279 3.59375 10.8262 3.89545 10.8262 4.26758C10.8262 4.63971 11.1279 4.94141 11.5 4.94141H17.558L11.5 7.14433L3.58894 4.26758L11.5 1.39083Z" fill="#D1966B"/>
<path d="M22.5093 15.0006C22.1337 14.3746 21.5758 14.0156 20.9785 14.0156H2.02148C1.42429 14.0156 0.866363 14.3746 0.490727 15.0006C0.174297 15.5281 0 16.2152 0 16.9355C0 17.6559 0.174297 18.343 0.490727 18.8705C0.866363 19.4964 1.42429 19.8555 2.02148 19.8555H9.47852V22.3262C9.47852 22.5428 9.58264 22.7462 9.75833 22.8728C9.93407 22.9995 10.1599 23.0339 10.3654 22.9654L11.5 22.5872L12.6345 22.9654C12.8388 23.0336 13.0656 22.9999 13.2416 22.8728C13.4174 22.7461 13.5215 22.5428 13.5215 22.3262V19.8555H20.9785C21.5757 19.8555 22.1336 19.4964 22.5093 18.8705C22.8257 18.343 23 17.6558 23 16.9355C23 16.2153 22.8257 15.5281 22.5093 15.0006ZM10.1523 17.6094C10.1523 16.8663 10.7569 16.2617 11.5 16.2617C12.2431 16.2617 12.8477 16.8663 12.8477 17.6094C12.8477 18.3525 12.2431 18.957 11.5 18.957C10.7569 18.957 10.1523 18.3525 10.1523 17.6094ZM12.9877 15.3633H19.2637C19.0647 15.8264 18.9571 16.3706 18.9571 16.9355C18.9571 17.5005 19.0647 18.0447 19.2637 18.5078H14.0408C14.1405 18.2266 14.1953 17.9243 14.1953 17.6094C14.1953 16.6728 13.7148 15.8465 12.9877 15.3633ZM1.34766 16.9355C1.34766 15.9602 1.78394 15.3633 2.02148 15.3633H10.0124C9.28517 15.8465 8.80469 16.6728 8.80469 17.6094C8.80469 17.9243 8.85949 18.2266 8.95922 18.5078H2.02148C1.78394 18.5078 1.34766 17.9109 1.34766 16.9355ZM11.7131 21.2377C11.5748 21.1916 11.4253 21.1916 11.2869 21.2377L10.8262 21.3912V20.2194C11.0416 20.275 11.2674 20.3047 11.5 20.3047C11.7326 20.3047 11.9584 20.275 12.1738 20.2194V21.3912L11.7131 21.2377ZM20.9785 18.5078C20.741 18.5078 20.3047 17.9109 20.3047 16.9355C20.3047 15.9602 20.741 15.3633 20.9785 15.3633C21.2161 15.3633 21.6523 15.9602 21.6523 16.9355C21.6523 17.9109 21.2161 18.5078 20.9785 18.5078Z" fill="#D1966B"/>
</g>
<defs>
<clipPath id="clip0_785_10780">
<rect width="23" height="23" fill="white"/>
</clipPath>
</defs>
</svg>
