<svg width="20" height="16" viewBox="0 0 20 16" fill="none" xmlns="http://www.w3.org/2000/svg">
<path d="M0 16V5.74956C0 2.57953 2.46266 0 5.48907 0H14.5096C17.5367 0 20 2.57953 20 5.74956V7.51759C20 10.6876 17.5373 13.2671 14.5109 13.2671H5.61632L0 16ZM5.48907 1.28182C3.13718 1.28182 1.22375 3.28605 1.22375 5.74956V13.9909L5.34665 11.9846H14.5109C16.8628 11.9846 18.7762 9.9804 18.7762 7.5169V5.74887C18.7762 3.28536 16.8622 1.28113 14.5096 1.28113H5.48907V1.28182ZM5.89259 5.65218C6.53546 5.65218 7.05634 6.19778 7.05634 6.87115C7.05634 7.54452 6.53546 8.09013 5.89259 8.09013C5.24973 8.09013 4.72884 7.54452 4.72884 6.87115C4.72884 6.19778 5.24973 5.65218 5.89259 5.65218ZM14.1067 5.65218C14.7496 5.65218 15.2705 6.19778 15.2705 6.87115C15.2705 7.54452 14.7496 8.09013 14.1067 8.09013C13.4639 8.09013 12.943 7.54452 12.943 6.87115C12.943 6.19778 13.4639 5.65218 14.1067 5.65218ZM9.99901 5.65218C10.6419 5.65218 11.1628 6.19778 11.1628 6.87115C11.1628 7.54452 10.6419 8.09013 9.99901 8.09013C9.35615 8.09013 8.83526 7.54452 8.83526 6.87115C8.83526 6.19778 9.35615 5.65218 9.99901 5.65218Z" fill="white"/>
</svg>
