<svg width="22" height="22" viewBox="0 0 22 22" fill="none" xmlns="http://www.w3.org/2000/svg">
<g clip-path="url(#clip0_785_10800)">
<path d="M11 0C4.93457 0 0 4.93457 0 11C0 17.0654 4.93457 22 11 22C17.0654 22 22 17.0654 22 11C22 4.93457 17.0654 0 11 0ZM11 20.1408C5.95972 20.1408 1.85917 16.0403 1.85917 11C1.85917 5.95972 5.95972 1.85917 11 1.85917C16.0403 1.85917 20.1408 5.95972 20.1408 11C20.1408 16.0403 16.0403 20.1408 11 20.1408Z" fill="#D1966B"/>
<path d="M15.9887 10.6591H11.6507V4.17544C11.6507 3.66205 11.2345 3.24585 10.7211 3.24585C10.2077 3.24585 9.7915 3.66205 9.7915 4.17544V11.5886C9.7915 12.102 10.2077 12.5182 10.7211 12.5182C10.7316 12.5182 10.7417 12.517 10.7521 12.5167C10.7624 12.517 10.7726 12.5182 10.783 12.5182H15.9887C16.5021 12.5182 16.9183 12.102 16.9183 11.5886C16.9183 11.0752 16.5021 10.6591 15.9887 10.6591Z" fill="#D1966B"/>
</g>
<defs>
<clipPath id="clip0_785_10800">
<rect width="22" height="22" fill="white"/>
</clipPath>
</defs>
</svg>
