<svg width="835" height="744" viewBox="0 0 835 744" fill="none" xmlns="http://www.w3.org/2000/svg">
<path d="M146.886 670.979C161.183 680.894 182.921 683.739 210.129 680.282C237.329 676.825 269.899 667.079 305.723 651.917C377.365 621.595 461.909 569.661 542.355 503.297C622.8 436.932 683.883 368.728 717.618 312.118C734.487 283.81 744.504 258.424 746.701 237.628C748.899 216.827 743.269 200.693 728.972 190.778C714.674 180.863 692.936 178.018 665.728 181.475C638.528 184.931 605.959 194.678 570.135 209.84C498.492 240.162 413.948 292.096 333.502 358.46C253.057 424.825 191.974 493.029 158.239 549.639C141.37 577.947 131.353 603.333 129.156 624.128C126.958 644.929 132.588 661.064 146.886 670.979Z" stroke="#151515"/>
<path d="M89.1556 572.079C101.204 580.435 120.792 581.842 146.101 577.052C171.386 572.267 202.232 561.321 236.608 545.149C305.354 512.809 388.107 459.624 468.558 393.255C549.008 326.886 611.895 259.924 648.538 205.321C666.862 178.017 678.609 153.826 682.722 134.358C686.839 114.873 683.29 100.234 671.242 91.8788C659.193 83.5235 639.605 82.1162 614.297 86.906C589.011 91.6913 558.165 102.637 523.789 118.809C455.043 151.149 372.29 204.335 291.84 270.703C211.389 337.072 148.503 404.035 111.859 458.637C93.5349 485.941 81.7885 510.132 77.6749 529.6C73.5577 549.086 77.1074 563.724 89.1556 572.079Z" stroke="#C4C4C4"/>
<path fill-rule="evenodd" clip-rule="evenodd" d="M146.253 38.4549L119 33.4998L146.5 28.4999L151.5 1L156.455 28.2531L184 33.4998L156.7 38.6999L151.5 66L146.253 38.4549Z" fill="#C4C4C4"/>
<path d="M146.253 38.4549L146.744 38.3613L146.68 38.0243L146.342 37.963L146.253 38.4549ZM119 33.4998L118.911 33.0079L118.911 33.9918L119 33.4998ZM146.5 28.4999L146.589 28.9918L146.93 28.9299L146.992 28.5893L146.5 28.4999ZM151.5 1L151.992 0.910557L151.008 0.910557L151.5 1ZM156.455 28.2531L155.963 28.3425L156.024 28.6801L156.361 28.7443L156.455 28.2531ZM184 33.4998L184.094 33.991V33.0086L184 33.4998ZM156.7 38.6999L156.606 38.2087L156.272 38.2723L156.208 38.6063L156.7 38.6999ZM151.5 66L151.008 66.0936H151.991L151.5 66ZM146.342 37.963L119.089 33.0079L118.911 33.9918L146.164 38.9468L146.342 37.963ZM119.089 33.9918L146.589 28.9918L146.41 28.0079L118.911 33.0079L119.089 33.9918ZM146.992 28.5893L151.992 1.08944L151.008 0.910557L146.008 28.4104L146.992 28.5893ZM151.008 1.08944L155.963 28.3425L156.947 28.1637L151.992 0.910557L151.008 1.08944ZM156.361 28.7443L183.906 33.991L184.094 33.0086L156.548 27.7619L156.361 28.7443ZM183.906 33.0086L156.606 38.2087L156.793 39.1911L184.094 33.991L183.906 33.0086ZM156.208 38.6063L151.008 65.9064L151.991 66.0936L157.191 38.7934L156.208 38.6063ZM151.991 65.9064L146.744 38.3613L145.762 38.5485L151.008 66.0936L151.991 65.9064Z" fill="#C4C4C4"/>
<path d="M191.76 354C191.76 365.333 182.794 374.5 171.76 374.5C160.725 374.5 151.76 365.333 151.76 354C151.76 342.667 160.725 333.5 171.76 333.5C182.794 333.5 191.76 342.667 191.76 354Z" fill="#6B7D7C" stroke="#C4C4C4"/>
</svg>
