<svg width="410" height="450" viewBox="0 0 410 450" fill="none" xmlns="http://www.w3.org/2000/svg">
<mask id="mask0_1642_2815" style="mask-type:alpha" maskUnits="userSpaceOnUse" x="0" y="0" width="410" height="450">
<rect width="410" height="450" fill="#F3F3F3"/>
</mask>
<g mask="url(#mask0_1642_2815)">
<path fill-rule="evenodd" clip-rule="evenodd" d="M170.15 43.6419L177.837 40.3636L177.534 49.2426L180.874 41.1081L186.459 47.6338L183.382 39.4278L191.702 39.7592L184.146 36.2195L190.188 30.2306L182.435 33.457L182.806 24.6293L179.546 32.751L173.877 26.2365L176.907 34.5156L168.636 34.1122L176.318 37.6295L170.15 43.6419Z" fill="#c4c4c4"/>
<path d="M195.012 -0.469208C197.44 5.33243 196.361 12.5633 192.169 20.7505C187.979 28.9317 180.719 37.9867 170.938 47.358C151.38 66.0968 121.83 86.0191 86.9216 102.665C52.0135 119.311 18.3944 129.511 -7.73137 132.556C-20.7969 134.079 -31.96 133.81 -40.4642 131.682C-48.9747 129.552 -54.7402 125.585 -57.1683 119.783C-59.5964 113.981 -58.5175 106.75 -54.3249 98.5633C-50.1355 90.3821 -42.8749 81.3271 -33.094 71.9558C-13.5362 53.2171 16.0138 33.2947 50.922 16.6488C85.8301 0.00282229 119.449 -10.197 145.575 -13.2426C158.641 -14.7657 169.804 -14.496 178.308 -12.3678C186.818 -10.238 192.584 -6.27084 195.012 -0.469208Z" stroke="#c4c4c4"/>
<path d="M177.383 64.6817C178.676 67.7697 177.922 71.7667 175.237 76.4475C172.56 81.115 168.017 86.3573 161.942 91.847C149.797 102.822 131.614 114.707 110.272 124.884C88.9299 135.061 68.5043 141.587 52.742 143.919C44.8576 145.086 38.1688 145.199 33.1252 144.214C28.0674 143.225 24.7756 141.157 23.4832 138.069C22.1908 134.981 22.9442 130.984 25.6294 126.303C28.3069 121.636 32.8491 116.393 38.9242 110.904C51.0695 99.9285 69.2522 88.0438 90.5944 77.8668C111.937 67.6897 132.362 61.1641 148.125 58.8314C156.009 57.6646 162.698 57.5514 167.741 58.5371C172.799 59.5256 176.091 61.5936 177.383 64.6817Z" stroke="#c4c4c4"/>
</g>
<path d="M35.4122 27.2887C35.4122 31.1603 32.4795 34.2424 28.9293 34.2424C25.379 34.2424 22.4463 31.1603 22.4463 27.2887C22.4463 23.417 25.379 20.335 28.9293 20.335C32.4795 20.335 35.4122 23.417 35.4122 27.2887Z" fill="white"  stroke="#c4c4c4"/>
</svg>
