<svg width="464" height="364" viewBox="0 0 464 364" fill="none" xmlns="http://www.w3.org/2000/svg">
<path d="M26.969 288.744C33.5951 293.1 44.4623 293.452 58.6583 290.152C72.8253 286.858 90.1419 279.961 109.47 270.026C148.12 250.161 194.702 218.207 240.042 178.871C285.382 139.534 320.868 100.286 341.593 68.6387C351.957 52.8121 358.615 38.909 360.982 27.8584C363.353 16.7853 361.392 8.70583 354.766 4.35037C348.14 -0.00509011 337.273 -0.357715 323.077 2.94283C308.91 6.23667 291.593 13.1336 272.265 23.0682C233.615 42.9338 187.033 74.8875 141.693 114.224C96.353 153.561 60.8673 192.808 40.1421 224.456C29.7776 240.283 23.1197 254.186 20.7532 265.236C18.3819 276.309 20.3429 284.389 26.969 288.744Z" stroke="#151515"/>
<path d="M58.2233 356.061C65.3503 360.501 77.5201 360.029 93.6962 355.083C109.824 350.153 129.722 340.838 152.073 327.884C196.766 301.98 251.162 261.588 304.655 212.846C358.148 164.104 400.586 116.262 425.959 78.3215C438.647 59.3483 447.053 42.8735 450.451 30.0121C453.859 17.1124 452.189 8.01783 445.061 3.5777C437.934 -0.862425 425.765 -0.390257 409.588 4.55508C393.46 9.48569 373.563 18.8009 351.212 31.7548C306.519 57.6582 252.122 98.0501 198.629 146.792C145.136 195.535 102.699 243.377 77.3261 281.317C64.6376 300.29 56.2319 316.765 52.8338 329.626C49.4256 342.526 51.0962 351.621 58.2233 356.061Z" stroke="#C4C4C4"/>
<path fill-rule="evenodd" clip-rule="evenodd" d="M402.178 320.186L381.16 316.365L402.368 312.509L406.224 291.301L410.046 312.319L431.288 316.365L410.234 320.375L406.224 341.429L402.178 320.186Z" fill="#D1966B"/>
<path fill-rule="evenodd" clip-rule="evenodd" d="M422.923 72.1513L435.992 65.6262L436.664 80.2973L441.433 66.4043L452.142 76.3413L445.617 63.2723L460.289 62.6006L446.524 57.8749L456.334 47.1235L443.137 53.5748L442.591 38.9752L437.964 52.8304L427.115 42.9308L433.566 56.1272L418.967 56.6731L432.952 61.3437L422.923 72.1513Z" fill="#C4C4C4"/>
<circle cx="13" cy="21" r="13" fill="#F3F3F3"/>
<path fill-rule="evenodd" clip-rule="evenodd" d="M126.592 357.41L144.249 341.348L151.816 364.122L153.151 340.157L174.401 351.031L158.34 333.375L181.115 325.807L157.369 324.485L168.025 303.223L150.136 319.225L142.798 296.509L141.671 320.351L120.215 309.598L136.217 327.487L113.502 334.825L137.566 335.963L126.592 357.41Z" fill="#C4C4C4"/>
</svg>
