<svg width="460" height="368" viewBox="0 0 460 368" fill="none" xmlns="http://www.w3.org/2000/svg">
<path d="M6.96978 306.745C13.5833 311.092 24.7325 311.201 39.4782 307.432C54.186 303.673 72.2828 296.101 92.5738 285.332C133.148 263.799 182.388 229.54 230.661 187.658C278.935 145.776 317.077 104.224 339.725 70.9062C351.051 54.2445 358.486 39.6648 361.388 28.1457C364.298 16.5969 362.617 8.27271 356.004 3.92557C349.39 -0.421572 338.241 -0.530468 323.495 3.23828C308.788 6.99733 290.691 14.5691 270.4 25.3379C229.825 46.8715 180.586 81.1299 132.312 123.012C84.0385 164.894 45.8965 206.447 23.2489 239.764C11.9231 256.426 4.48773 271.005 1.58565 282.524C-1.32393 294.073 0.356312 302.397 6.96978 306.745Z" stroke="#151515"/>
<path d="M32.0929 363.667C39.1101 368.533 51.4505 368.693 68.0393 364.544C84.5805 360.407 105.133 352.036 128.331 340.116C174.719 316.279 231.576 278.306 287.895 231.845C344.214 185.384 389.306 139.253 416.685 102.234C430.377 83.7211 439.624 67.509 443.641 54.6864C447.669 41.8269 446.39 32.5419 439.372 27.6756C432.355 22.8092 420.015 22.6492 403.426 26.7981C386.885 30.9352 366.332 39.3064 343.134 51.2268C296.746 75.0635 239.889 113.036 183.57 159.497C127.251 205.958 82.1594 252.09 54.7798 289.109C41.0878 307.621 31.8414 323.833 27.8247 336.656C23.7964 349.516 25.0756 358.801 32.0929 363.667Z" stroke="#C4C4C4"/>
<path fill-rule="evenodd" clip-rule="evenodd" d="M382.178 338.186L361.16 334.365L382.369 330.509L386.225 309.301L390.046 330.319L411.288 334.365L390.235 338.375L386.225 359.429L382.178 338.186Z" fill="#C4C4C4"/>
<path fill-rule="evenodd" clip-rule="evenodd" d="M421.576 107.477L428.087 93.4943L438.286 105.177L433.095 90.5609L448.477 91.7331L434.493 85.2219L446.176 75.0222L431.695 80.1654L432.734 64.8331L426.07 78.8387L416.021 67.1326L421.305 81.6242L405.833 80.5752L419.837 87.2391L408.132 97.2863L422.759 91.9532L421.576 107.477Z" fill="#D1966B"/>
<circle cx="35" cy="42" r="13" fill="#F3F3F3"/>
</svg>
