<svg width="833" height="673" viewBox="0 0 833 673" fill="none" xmlns="http://www.w3.org/2000/svg">
<path d="M80.8073 539.47C91.5579 546.537 109.605 546.671 133.283 540.619C156.923 534.577 185.986 522.414 218.549 505.132C283.669 470.572 362.68 415.598 440.135 348.4C517.589 281.201 578.795 214.524 615.143 161.051C633.319 134.312 645.264 110.897 649.928 92.3825C654.6 73.838 651.936 60.3578 641.185 53.2912C630.434 46.2247 612.387 46.0905 588.709 52.1421C565.069 58.1841 536.006 70.3469 503.443 87.629C438.323 122.189 359.312 177.163 281.858 244.362C204.403 311.56 143.197 378.238 106.849 431.71C88.6732 458.449 76.7286 481.864 72.064 500.379C67.392 518.923 70.0566 532.404 80.8073 539.47Z" stroke="#151515"/>
<path d="M104.47 623.697C109.198 626.976 116.088 628.371 124.977 627.951C133.867 627.531 144.696 625.297 157.21 621.374C182.234 613.53 213.875 598.972 249.998 578.872C322.236 538.678 412.306 476.377 503.074 401.496C593.842 326.616 668.101 253.351 714.788 195.437C738.134 166.476 754.569 141.374 762.734 121.838C766.817 112.069 768.822 103.715 768.605 96.9799C768.389 90.2456 765.955 85.1742 761.227 81.8952C756.498 78.6162 749.608 77.2215 740.719 77.6413C731.829 78.0612 721 80.2951 708.486 84.2177C683.462 92.0619 651.822 106.62 615.699 126.72C543.46 166.915 453.391 229.215 362.623 304.096C271.855 378.976 197.595 452.241 150.908 510.155C127.562 539.116 111.127 564.218 102.962 583.754C98.8788 593.523 96.8742 601.877 97.0909 608.612C97.3076 615.346 99.7413 620.418 104.47 623.697Z" stroke="#C4C4C4"/>
<path fill-rule="evenodd" clip-rule="evenodd" d="M682.944 589.711L649.228 583.581L683.249 577.395L689.435 543.373L695.565 577.09L729.643 583.581L695.868 590.014L689.435 623.788L682.944 589.711Z" fill="#D1966B"/>
<path fill-rule="evenodd" clip-rule="evenodd" d="M726.734 180.449L742.605 163.208L751.983 184.821L751.207 161.27L772.933 170.058L755.692 154.187L777.307 144.808L753.972 145.577L762.545 123.861L746.441 141.063L737.292 119.485L738.26 142.899L716.345 134.247L733.547 150.351L711.971 159.5L735.603 158.522L726.734 180.449Z" fill="#C4C4C4"/>
</svg>
