<svg width="26" height="24" viewBox="0 0 26 24" fill="none" xmlns="http://www.w3.org/2000/svg">
<path d="M23.6065 0.938965H12.1841C10.8644 0.938965 9.79066 2.02526 9.79066 3.36041V10.7734L7.66975 9.70641C7.59814 9.67029 7.52534 9.63617 7.45195 9.60386C8.07462 8.94623 8.45845 8.05519 8.45845 7.07485C8.45845 5.05698 6.83583 3.4152 4.84128 3.4152C2.84653 3.4152 1.22391 5.05698 1.22391 7.07485C1.22391 8.17139 1.70375 9.15634 2.4615 9.82763C1.06601 10.6219 0 12.1714 0 14.0909V16.5672C0 17.6332 0.684158 18.5405 1.63174 18.863V23.1707C1.63174 23.5961 1.97273 23.9413 2.39346 23.9413H7.2887C7.70943 23.9413 8.05042 23.5961 8.05042 23.1707V14.5122L10.4891 15.7456C11.4224 16.2176 12.6884 15.9362 13.2608 14.8616H15.9919L13.1 22.9072C12.9562 23.3071 13.1603 23.7494 13.5556 23.8947C14.0075 24.0611 14.4094 23.7743 14.5318 23.4339L17.613 14.8616H18.147L21.2597 23.4364C21.3779 23.7617 21.7768 24.0651 22.2374 23.8939C22.6322 23.7472 22.8349 23.3045 22.6897 22.9049L19.7698 14.8616H23.6065C24.9007 14.8616 26 13.8054 26 12.4401V3.36041C26 1.99496 24.9007 0.938965 23.6065 0.938965ZM2.74734 7.07485C2.74734 5.90668 3.6866 4.95644 4.84108 4.95644C5.99576 4.95644 6.93501 5.90668 6.93501 7.07485C6.93501 8.24283 5.99576 9.19307 4.84108 9.19307C3.6866 9.19307 2.74734 8.24283 2.74734 7.07485ZM11.959 14.0376C11.957 14.0432 11.955 14.049 11.9532 14.0548C11.9013 14.2015 11.7838 14.3251 11.64 14.3849C11.4879 14.4476 11.3167 14.4409 11.1705 14.3671C9.72203 13.634 7.62909 12.5762 7.62909 12.5762C7.12366 12.3205 6.52698 12.693 6.52698 13.2655V22.4H3.15518V18.218C3.15518 17.7925 2.814 17.4474 2.39346 17.4474C1.91362 17.4474 1.52344 17.0526 1.52344 16.5672V14.0909C1.52344 12.2079 3.03894 10.7345 4.84108 10.7345H5.51413C6.02472 10.7345 6.53471 10.8557 6.99036 11.0859C6.99036 11.0859 10.7686 12.9868 11.7309 13.4716C11.937 13.5752 12.035 13.8184 11.959 14.0376ZM24.4766 12.4401C24.4766 12.6755 24.3863 12.8965 24.2221 13.0626C24.0604 13.2264 23.836 13.3203 23.6065 13.3203H13.4265C13.4251 13.3161 13.4241 13.3119 13.4227 13.3079L15.3131 9.48305C15.5012 9.10236 15.3488 8.63958 14.9725 8.44913C14.5964 8.25889 14.1388 8.41301 13.9506 8.79371L12.3383 12.0558C12.0377 11.9043 11.6884 11.7283 11.3141 11.5401V3.36041C11.3141 2.87516 11.7043 2.48021 12.1841 2.48021H23.6065C23.836 2.48021 24.0604 2.57413 24.2223 2.73829C24.3863 2.90405 24.4766 3.12501 24.4766 3.36041V12.4401Z" fill="#D1966B"/>
<path d="M21.9748 4.24072H13.8159C13.3952 4.24072 13.0542 4.58563 13.0542 5.0112C13.0542 5.43677 13.3952 5.78168 13.8159 5.78168H21.9748C22.3954 5.78168 22.7366 5.43677 22.7366 5.0112C22.7366 4.58563 22.3956 4.24072 21.9748 4.24072Z" fill="#D1966B"/>
<path d="M21.9751 7.12939H17.8955C17.475 7.12939 17.1338 7.4743 17.1338 7.89987C17.1338 8.32544 17.475 8.67035 17.8955 8.67035H21.9751C22.3956 8.67035 22.7368 8.32544 22.7368 7.89987C22.7368 7.4743 22.3958 7.12939 21.9751 7.12939Z" fill="#D1966B"/>
<path d="M21.9751 10.0186H17.8955C17.475 10.0186 17.1338 10.3635 17.1338 10.789C17.1338 11.2144 17.475 11.5595 17.8955 11.5595H21.9751C22.3956 11.5595 22.7368 11.2144 22.7368 10.789C22.7368 10.3635 22.3958 10.0186 21.9751 10.0186Z" fill="#D1966B"/>
</svg>
