<svg width="248" height="255" viewBox="0 0 248 255" fill="none" xmlns="http://www.w3.org/2000/svg">
<rect width="248" height="255" fill="#C4C4C4"/>
<mask id="mask0_786_11606" style="mask-type:alpha" maskUnits="userSpaceOnUse" x="0" y="0" width="248" height="255">
<rect width="248" height="255" fill="#C4C4C4"/>
</mask>
<g mask="url(#mask0_786_11606)">
<path d="M15.259 222.732C20.4981 226.923 28.7427 228.54 39.3074 227.771C49.8655 227.002 62.6459 223.853 76.8181 218.611C105.157 208.128 138.946 189.317 171.448 164.655C203.951 139.993 228.98 114.175 243.179 92.3804C250.28 81.4812 254.658 71.6107 255.924 63.4081C257.19 55.2004 255.333 48.7365 250.094 44.5454C244.855 40.3542 236.61 38.737 226.045 39.5065C215.487 40.2756 202.707 43.4243 188.535 48.6667C160.196 59.1495 126.407 77.9604 93.9047 102.622C61.4022 127.284 36.3732 153.103 22.1739 174.897C15.0729 185.796 10.6951 195.667 9.4293 203.869C8.16268 212.077 10.0198 218.541 15.259 222.732Z" stroke="white"/>
<path d="M125.5 200.5H110.5C135.667 182.667 186.1 147.1 186.5 147.5C190.1 149.5 192 152.333 192.5 153.5L125.5 200.5Z" fill="#C4C4C4"/>
<path d="M162.275 69.3333C163.588 66.2222 162.822 59.1481 162.275 56H154.62L89 92.6667C89.5468 96 90.7499 103.222 91.1873 105.444L92.281 111C115.066 98.4074 160.963 72.4444 162.275 69.3333Z" fill="#C4C4C4"/>
<path d="M-9.91676 192.642C-5.15751 196.258 2.18841 197.548 11.5317 196.68C20.8693 195.813 32.1109 192.796 44.5292 187.895C69.3609 178.096 98.7831 160.809 126.892 138.351C155 115.893 176.439 92.5423 188.388 72.9552C194.363 63.1597 197.951 54.3281 198.829 47.0336C199.707 39.7346 197.867 34.0457 193.108 30.4299C188.349 26.8142 181.003 25.5243 171.66 26.3922C162.322 27.2595 151.08 30.2762 138.662 35.177C113.83 44.9763 84.4082 62.2627 56.2998 84.7207C28.1913 107.179 6.75182 130.53 -5.19669 150.117C-11.1722 159.912 -14.7599 168.744 -15.6377 176.038C-16.5161 183.337 -14.676 189.026 -9.91676 192.642Z" stroke="white"/>
<rect x="51.4453" y="174.833" width="14" height="18" transform="rotate(18.5184 51.4453 174.833)" fill="#C4C4C4"/>
<path d="M142.895 133.831C143.815 130.741 142.493 124.03 141.717 121.061L134.746 121.704L78.2388 162.332C79.0312 165.479 80.7645 172.295 81.3591 174.387L82.8456 179.616C102.479 165.642 141.975 136.921 142.895 133.831Z" fill="#C4C4C4"/>
<path fill-rule="evenodd" clip-rule="evenodd" d="M55.7402 38.6041L44 36.4075L55.8463 34.1909L58.0002 22L60.1348 34.0817L72 36.4075L60.2402 38.7126L58.0002 50.8145L55.7402 38.6041Z" fill="white"/>
<path fill-rule="evenodd" clip-rule="evenodd" d="M201.014 139.431L211.61 132.367L213.62 145.281L216.363 132.518L226.538 140.251L219.654 129.334L232.2 127.29L219.905 124.469L227.288 113.988L216.575 120.999L214.68 108.138L212.056 120.852L201.764 113.166L208.598 124.204L196.104 126.13L208.578 128.879L201.014 139.431Z" fill="white"/>
<path d="M153.685 32.5348C153.685 35.9665 150.985 38.7239 147.685 38.7239C144.384 38.7239 141.685 35.9665 141.685 32.5348C141.685 29.103 144.384 26.3457 147.685 26.3457C150.985 26.3457 153.685 29.103 153.685 32.5348Z" fill="#C4C4C4" stroke="white"/>
<path d="M60.2529 225.284C60.2529 229.568 56.8816 233.016 52.7529 233.016C48.6242 233.016 45.2529 229.568 45.2529 225.284C45.2529 220.999 48.6242 217.551 52.7529 217.551C56.8816 217.551 60.2529 220.999 60.2529 225.284Z" fill="#C4C4C4" stroke="white"/>
</g>
<path d="M154.339 74.3457C152.736 76.2667 151.948 78.7472 152.143 81.2508L152.686 89.175H148.029V85.353L147.89 73.8871C144.571 74.9572 133.781 75.951 127.017 75.8873C116.088 75.7853 105.21 74.7534 105.21 74.7534C103.884 78.1738 102.821 81.6919 102.029 85.2766V89.0986H97.3221L94.6467 87.8246C94.6467 87.8246 88.3367 63.6187 102.635 61.6567C102.635 61.6567 106.825 55.2867 114.094 55.4396C123.13 55.567 146.451 61.0579 156.143 54C156.143 54.0892 159.992 67.7464 154.339 74.3457Z" fill="#F3F3F3"/>
<path d="M199 196L188.16 163.806C186.506 158.898 183.7 154.466 179.982 150.89C176.263 147.314 171.743 144.699 166.807 143.269C155.146 139.906 142.677 137.638 140.431 137.243C140.668 137.611 140.948 137.949 141.264 138.25L125.035 151.818L107.859 138.25C108.176 137.937 108.46 137.591 108.705 137.218C106.913 137.524 93.6492 139.766 81.4079 143.282C76.421 144.689 71.8488 147.301 68.0866 150.893C64.3243 154.485 61.4854 158.947 59.8152 163.895L49 196H199Z" fill="#F3F3F3"/>
<path d="M142.299 137.179C139.952 134.861 138.589 127.981 138.097 122.439C137.192 123.077 136.243 123.647 135.257 124.146C135.699 127.968 136.759 134.44 139.169 138.046L125.01 149.881L109.979 138.046C112.503 134.313 113.5 127.573 113.904 123.79C112.916 123.249 111.971 122.631 111.077 121.942C110.623 127.548 109.26 134.822 106.824 137.23L105.562 138.428L125.06 153.741L143.485 138.339L142.299 137.179Z" fill="#F3F3F3"/>
<path d="M125.136 128.413H124.707C113.349 127.432 107.304 121.419 104.288 116.552C102.323 113.372 101.034 109.815 100.502 106.105V84.6514L100.679 84.5367C101.453 81.0333 102.508 77.5992 103.834 74.2683L104.275 73.3128L105.323 73.402C105.436 73.402 116.264 74.4339 127.004 74.5358C133.818 74.5358 144.318 73.6058 147.41 72.5994L149.328 71.9751L149.505 85.4412V106.016V106.093C148.987 109.806 147.697 113.366 145.719 116.539C142.715 121.406 136.721 127.419 125.3 128.4L125.136 128.413ZM124.909 125.394H125.01C143.94 123.738 146.287 107.252 146.464 105.851V85.4667L146.35 75.9754C139.931 77.0488 133.435 77.5815 126.928 77.5679C118.094 77.4788 109.109 76.7781 106.08 76.5233C105.026 79.5011 104.146 82.5383 103.442 85.6196V105.876C103.619 107.239 105.979 123.738 124.909 125.394Z" fill="#F3F3F3"/>
<path d="M101.966 103.838C97.4099 103.533 96.9177 101.38 96.9177 98.959C96.9177 96.5384 96.11 93.863 94.6083 87.9135C93.1065 81.9639 101.221 85.0342 101.221 85.0342L101.915 86.7669L101.966 103.838Z" fill="#F3F3F3"/>
<path d="M154.414 87.914C152.912 93.8508 152.016 96.4498 152.105 98.9596C152.206 101.215 151.726 103.24 147.965 103.763V85.4425L147.713 85.2259L147.789 85.0348C147.789 85.0348 155.903 81.9899 154.414 87.914Z" fill="#F3F3F3"/>
<path d="M136.948 124.223C136.948 124.223 131.244 134.224 116.832 132.95L113.475 144.607L107.859 138.237L112.352 123.331C112.352 123.331 125.893 129.357 136.948 124.223Z" fill="#F3F3F3"/>
<path d="M146.766 97.8633C146.766 107.52 138.324 113.151 138.324 113.151C135.8 106.437 126.701 106.195 124.442 106.233C122.183 106.272 113.084 106.437 110.636 113.151C110.636 113.151 102.193 107.507 102.193 97.8633C102.193 97.8633 99.5176 124.936 124.088 126.847H124.442H124.795C149.417 124.936 146.766 97.8633 146.766 97.8633ZM124.492 122.349C120.511 122.21 116.676 120.801 113.538 118.324L114.876 114.756C116.289 110.934 122.839 110.769 124.139 110.769H124.858C126.12 110.769 132.708 110.96 134.121 114.756L135.459 118.324C132.318 120.803 128.478 122.213 124.492 122.349Z" fill="#F3F3F3"/>
</svg>
