<svg width="23" height="23" viewBox="0 0 23 23" fill="none" xmlns="http://www.w3.org/2000/svg">
<g clip-path="url(#clip0_785_10685)">
<path d="M22.4078 7.23813C21.6196 6.44993 20.3371 6.44997 19.5487 7.23831C19.3062 7.48102 17.758 9.03051 17.5215 9.26725V3.92734C17.5215 3.38738 17.3112 2.87976 16.9294 2.49797L15.0236 0.59207C14.6418 0.210234 14.1341 0 13.5941 0H2.02344C0.908791 0 0.00195312 0.906838 0.00195312 2.02148V20.9785C0.00195312 22.0932 0.908791 23 2.02344 23H15.5C16.6146 23 17.5215 22.0932 17.5215 20.9785V14.9873L22.4077 10.097C23.1978 9.30696 23.1979 8.02821 22.4078 7.23813ZM13.4786 1.34766C13.6059 1.34766 13.8512 1.3256 14.0706 1.545L15.9765 3.4509C16.1903 3.66477 16.1739 3.89913 16.1739 4.04297H13.4786V1.34766ZM16.1738 20.9785C16.1738 21.3501 15.8716 21.6523 15.5 21.6523H2.02344C1.65189 21.6523 1.34961 21.3501 1.34961 20.9785V2.02148C1.34961 1.64994 1.65189 1.34766 2.02344 1.34766H12.1309V4.7168C12.1309 5.08893 12.4326 5.39062 12.8047 5.39062H16.1738V10.6161C16.1738 10.6161 14.1859 12.6058 14.1858 12.6058L13.2333 13.5583C13.1593 13.6323 13.1036 13.7225 13.0705 13.8217L12.1175 16.6805C12.0368 16.9227 12.0998 17.1896 12.2803 17.3701C12.461 17.5508 12.7281 17.6135 12.9699 17.5329L15.8287 16.5799C15.9279 16.5469 16.0181 16.4911 16.0921 16.4171L16.1738 16.3354V20.9785ZM14.6627 14.0348L15.6156 14.9877L15.2516 15.3517L13.8222 15.8282L14.2987 14.3988L14.6627 14.0348ZM16.5683 14.0346L15.6154 13.0817C16.1228 12.5738 18.3765 10.3182 18.8545 9.83982L19.8074 10.7927L16.5683 14.0346ZM21.4546 9.14421L20.76 9.83942L19.8071 8.88649L20.5019 8.19105C20.7648 7.92831 21.1922 7.92835 21.4549 8.19105C21.7175 8.45385 21.7189 8.87984 21.4546 9.14421Z" fill="#D1966B"/>
<path d="M12.8037 6.73828H3.37012C2.99798 6.73828 2.69629 7.03998 2.69629 7.41211C2.69629 7.78424 2.99798 8.08594 3.37012 8.08594H12.8037C13.1758 8.08594 13.4775 7.78424 13.4775 7.41211C13.4775 7.03998 13.1758 6.73828 12.8037 6.73828Z" fill="#D1966B"/>
<path d="M10.1084 9.43359H3.37012C2.99798 9.43359 2.69629 9.73529 2.69629 10.1074C2.69629 10.4796 2.99798 10.7812 3.37012 10.7812H10.1084C10.4805 10.7812 10.7822 10.4796 10.7822 10.1074C10.7822 9.73529 10.4805 9.43359 10.1084 9.43359Z" fill="#D1966B"/>
<path d="M10.1084 12.1289H3.37012C2.99798 12.1289 2.69629 12.4306 2.69629 12.8027C2.69629 13.1749 2.99798 13.4766 3.37012 13.4766H10.1084C10.4805 13.4766 10.7822 13.1749 10.7822 12.8027C10.7822 12.4306 10.4805 12.1289 10.1084 12.1289Z" fill="#D1966B"/>
<path d="M10.1084 14.8242H3.37012C2.99798 14.8242 2.69629 15.1259 2.69629 15.498C2.69629 15.8702 2.99798 16.1719 3.37012 16.1719H10.1084C10.4805 16.1719 10.7822 15.8702 10.7822 15.498C10.7822 15.1259 10.4805 14.8242 10.1084 14.8242Z" fill="#D1966B"/>
<path d="M12.8037 18.957H8.76074C8.38861 18.957 8.08691 19.2587 8.08691 19.6309C8.08691 20.003 8.38861 20.3047 8.76074 20.3047H12.8037C13.1758 20.3047 13.4775 20.003 13.4775 19.6309C13.4775 19.2587 13.1758 18.957 12.8037 18.957Z" fill="#D1966B"/>
</g>
<defs>
<clipPath id="clip0_785_10685">
<rect width="23" height="23" fill="white"/>
</clipPath>
</defs>
</svg>
