<svg width="300" height="120" viewBox="0 0 300 120" fill="none" stroke="#B1805C" xmlns="http://www.w3.org/2000/svg">
<mask id="mask0_1646_2733" style="mask-type:alpha" maskUnits="userSpaceOnUse" x="0" y="0" width="300" height="120">
<rect width="300" height="120" fill="#F3F3F3"/>
</mask>
<g mask="url(#mask0_1646_2733)">
<path d="M11.9237 88.0611C14.8774 89.832 19.1863 90.644 24.5421 90.5464C29.9003 90.4488 36.2523 89.4401 43.1959 87.6083C57.0801 83.9455 73.2133 77.0225 88.2803 67.6982C103.347 58.374 114.456 48.4385 120.248 39.9243C123.145 35.6663 124.7 31.7817 124.776 28.5168C124.851 25.2533 123.45 22.6419 120.496 20.871C117.542 19.1002 113.233 18.2881 107.878 18.3857C102.519 18.4834 96.1674 19.492 89.2238 21.3238C75.3395 24.9866 59.2064 31.9097 44.1394 41.2339C29.0724 50.5582 17.9638 60.4937 12.1714 69.0078C9.27453 73.2658 7.71949 77.1505 7.64416 80.4154C7.56886 83.6788 8.97008 86.2903 11.9237 88.0611Z" />
<path d="M-30.46 85.2369C-26.7285 87.4741 -21.1619 88.4202 -14.1794 88.1531C-7.19692 87.8859 1.13214 86.4062 10.2753 83.8447C28.5576 78.7229 49.9744 69.31 70.1698 56.812C90.3652 44.3141 105.477 31.1211 113.595 19.9052C117.655 14.296 119.952 9.19978 120.279 4.94292C120.607 0.686006 118.966 -2.68926 115.234 -4.92647C111.503 -7.16368 105.936 -8.10985 98.9539 -7.84268C91.9714 -7.57551 83.6424 -6.0958 74.4992 -3.53433C56.2169 1.58749 34.8001 11.0004 14.6047 23.4984C-5.59072 35.9963 -20.7026 49.1893 -28.8204 60.4052C-32.8801 66.0144 -35.1771 71.1106 -35.505 75.3675C-35.8329 79.6244 -34.1915 82.9996 -30.46 85.2369Z" />
</g>
</svg>
