<svg width="23" height="23" viewBox="0 0 23 23" fill="none" xmlns="http://www.w3.org/2000/svg">
<path d="M5.39736 12.1289C5.02209 12.1289 4.7168 12.4342 4.7168 12.8095C4.7168 13.1847 5.02209 13.49 5.39736 13.49C5.77264 13.49 6.06445 13.1847 6.06445 12.8095C6.06445 12.4342 5.7726 12.1289 5.39736 12.1289Z" fill="white"/>
<path d="M11.5449 0C9.68718 0 8.17578 1.5114 8.17578 3.36914C8.17578 5.22688 9.68718 6.73828 11.5449 6.73828C13.4027 6.73828 14.9141 5.22688 14.9141 3.36914C14.9141 1.5114 13.4027 0 11.5449 0ZM11.5449 5.39062C10.4303 5.39062 9.52344 4.48379 9.52344 3.36914C9.52344 2.25449 10.4303 1.34766 11.5449 1.34766C12.6596 1.34766 13.5664 2.25449 13.5664 3.36914C13.5664 4.48379 12.6596 5.39062 11.5449 5.39062Z" fill="white"/>
<path d="M14.2402 9.43359H8.84961C8.47748 9.43359 8.17578 9.73529 8.17578 10.1074C8.17578 10.4796 8.47748 10.7812 8.84961 10.7812H14.2402C14.6124 10.7812 14.9141 10.4796 14.9141 10.1074C14.9141 9.73529 14.6124 9.43359 14.2402 9.43359Z" fill="white"/>
<path d="M22.2105 10.2231C21.9474 9.95985 21.5208 9.95985 21.2576 10.2231C20.9945 10.4862 20.9945 10.9128 21.2576 11.176C21.5121 11.4306 21.6523 11.7689 21.6523 12.1289C21.6523 12.872 21.0478 13.4766 20.3047 13.4766H20.2737C19.9321 9.70416 16.7525 6.73828 12.8926 6.73828H11.5449H9.52344C9.0947 6.73828 8.60339 6.78689 8.12816 6.87439C7.2357 5.9265 6.01423 5.39062 4.7168 5.39062C4.34466 5.39062 4.04297 5.69232 4.04297 6.06445V9.09753C3.23608 9.9581 2.64576 10.9985 2.32426 12.1289H2.02148C0.906838 12.1289 0 13.0357 0 14.1504V15.543C0 16.6576 0.906838 17.56 2.02148 17.56C2.25243 17.56 2.57434 17.5605 2.8303 17.562C3.29947 18.4849 3.95304 19.3184 4.71383 19.9544C4.71675 20.8478 4.7168 22.3096 4.7168 22.3262C4.7168 22.6983 5.01849 23 5.39062 23H8.08594C8.45807 23 8.75977 22.6983 8.75977 22.3262V21.6174C9.01443 21.6401 9.2756 21.6523 9.52344 21.6523H12.8926V22.3262C12.8926 22.6983 13.1943 23 13.5664 23H16.2617C16.6339 23 16.9355 22.6983 16.9355 22.3262C16.9355 22.3163 16.9355 21.4399 16.9378 20.4514C17.8924 19.8249 18.6993 18.9657 19.2863 17.947C19.8395 16.9869 20.1753 15.9189 20.2736 14.8243H20.3047C21.7909 14.8243 23 13.6151 23 12.129C23 11.409 22.7196 10.7322 22.2105 10.2231ZM15.9272 19.4921C15.7197 19.6123 15.5918 19.8336 15.5911 20.0733C15.5895 20.6539 15.5887 21.2287 15.5883 21.6523H14.2402C14.2402 21.0207 14.2402 21.4042 14.2402 19.6309C14.2402 19.2587 13.9385 18.957 13.5664 18.957C13.1943 18.957 12.8926 19.2587 12.8926 19.6309V20.3047H9.52344C9.27367 20.3047 9.00962 20.2902 8.75977 20.2639V19.6309C8.75977 19.2587 8.45807 18.957 8.08594 18.957C7.7138 18.957 7.41211 19.2587 7.41211 19.6309C7.41211 20.8217 7.41211 20.8935 7.41211 21.6523H6.06418C6.06378 21.0272 6.06279 20.1208 6.06019 19.6246C6.05906 19.4141 5.95965 19.2162 5.79146 19.0897C4.98727 18.4846 4.30715 17.6102 3.8764 16.6275C3.77317 16.392 3.54496 16.2358 3.2881 16.2248C3.10967 16.2172 2.20167 16.2168 2.02148 16.2168C1.64994 16.2168 1.34766 15.9145 1.34766 15.543V14.1504C1.34766 13.7788 1.64994 13.4766 2.02148 13.4766H2.82837C2.82913 13.4766 2.82985 13.4767 2.83062 13.4767C2.8317 13.4767 2.83273 13.4766 2.83381 13.4766C3.19053 13.4766 3.44227 13.2501 3.5124 12.9622C3.53904 12.8528 3.59397 12.6274 3.60673 12.5469C3.88682 11.5291 4.43361 10.5978 5.19018 9.85092C5.31844 9.72433 5.39062 9.5516 5.39062 9.37138V6.8076C6.15353 6.96671 6.84488 7.39401 7.34935 8.03284C7.51184 8.23863 7.77894 8.33144 8.03401 8.27079C8.52842 8.15332 9.0713 8.08594 9.52344 8.08594H12.8926C16.2365 8.08594 18.957 10.8065 18.957 14.1504C18.957 16.3293 17.7677 18.4261 15.9272 19.4921Z" fill="white"/>
</svg>
