<svg width="23" height="23" viewBox="0 0 23 23" fill="none" xmlns="http://www.w3.org/2000/svg">
<path d="M22.3262 0H0.673828C0.301695 0 0 0.301695 0 0.673828V18.6426C0 19.0147 0.301695 19.3164 0.673828 19.3164H7.94677L7.37703 21.6523H6.55859C6.18646 21.6523 5.88477 21.954 5.88477 22.3262C5.88477 22.6983 6.18646 23 6.55859 23H16.4414C16.8135 23 17.1152 22.6983 17.1152 22.3262C17.1152 21.954 16.8135 21.6523 16.4414 21.6523H15.623L15.0532 19.3164H22.3262C22.6983 19.3164 23 19.0147 23 18.6426V0.673828C23 0.301695 22.6983 0 22.3262 0ZM8.76417 21.6523L9.33391 19.3164H13.666L14.2358 21.6523H8.76417ZM21.6523 17.9688H1.34766V16.6211H21.6523V17.9688ZM6.55859 13.0273C7.93671 13.0273 9.09407 13.9873 9.39918 15.2734H3.718C4.02311 13.9873 5.18048 13.0273 6.55859 13.0273ZM5.21094 10.332C5.21094 9.58893 5.8155 8.98438 6.55859 8.98438C7.30169 8.98438 7.90625 9.58893 7.90625 10.332C7.90625 11.0751 7.30169 11.6797 6.55859 11.6797C5.8155 11.6797 5.21094 11.0751 5.21094 10.332ZM21.6523 15.2734H10.7728C10.5574 13.9211 9.70438 12.7786 8.53264 12.1646C8.97975 11.6833 9.25391 11.0392 9.25391 10.332C9.25391 8.84584 8.04479 7.63672 6.55859 7.63672C5.0724 7.63672 3.86328 8.84584 3.86328 10.332C3.86328 11.0392 4.13744 11.6833 4.58459 12.1646C3.4128 12.7786 2.55983 13.9211 2.34443 15.2734H1.34766V1.34766H21.6523V15.2734Z" fill="white"/>
<path d="M11.2421 11.6284C11.3255 11.6629 11.4131 11.6797 11.4999 11.6797C11.6752 11.6797 11.8476 11.6112 11.9765 11.4823L14.0252 9.43359H18.6875C19.5544 9.43359 20.2598 8.72828 20.2598 7.86133V4.26758C20.2598 3.40063 19.5544 2.69531 18.6875 2.69531H12.3984C11.5315 2.69531 10.8262 3.40063 10.8262 4.26758V11.0059C10.8262 11.2784 10.9904 11.5241 11.2421 11.6284ZM12.1738 4.26758C12.1738 4.14373 12.2746 4.04297 12.3984 4.04297H18.6875C18.8113 4.04297 18.9121 4.14373 18.9121 4.26758V7.86133C18.9121 7.98518 18.8113 8.08594 18.6875 8.08594H13.7461C13.5673 8.08594 13.396 8.15696 13.2697 8.28332L12.1738 9.3791V4.26758Z" fill="white"/>
<path d="M14.1953 6.73828H16.8906C17.2628 6.73828 17.5645 6.43659 17.5645 6.06445C17.5645 5.69232 17.2628 5.39062 16.8906 5.39062H14.1953C13.8232 5.39062 13.5215 5.69232 13.5215 6.06445C13.5215 6.43659 13.8232 6.73828 14.1953 6.73828Z" fill="white"/>
</svg>
