<svg width="23" height="23" viewBox="0 0 23 23" fill="none" xmlns="http://www.w3.org/2000/svg">
<path d="M22.3374 12.8303C22.3374 12.8303 22.3374 12.8303 22.3374 12.8303C21.5614 12.0542 20.2612 12.0144 19.439 12.7415L16.1187 15.6787C16.1221 15.6307 16.1239 15.5822 16.1239 15.5333C16.1239 14.4187 15.2171 13.5119 14.1024 13.5119H7.4834C6.34041 13.5119 5.21399 13.8983 4.31178 14.6001L0.260143 17.7513C0.095998 17.879 0 18.0752 0 18.2832V22.3261C0 22.6983 0.301695 23 0.673828 23H5.5518C5.69039 23 5.82565 22.9573 5.93908 22.8776L8.40115 21.1486H14.5227C15.5769 21.1486 16.5895 20.7607 17.3739 20.0564L22.2612 15.6681C22.6588 15.311 22.8951 14.7999 22.9095 14.2656C22.9238 13.7314 22.7153 13.2082 22.3374 12.8303ZM21.3608 14.6653L16.4735 19.0536C15.9368 19.5355 15.244 19.8009 14.5227 19.8009H8.18818C8.0496 19.8009 7.91434 19.8436 7.80091 19.9233L5.33883 21.6523H1.34766V18.6127L5.13911 15.6638C5.80597 15.1451 6.63851 14.8595 7.48336 14.8595H14.1024C14.474 14.8595 14.7762 15.1618 14.7762 15.5333C14.7762 15.9049 14.474 16.2072 14.1024 16.2072H9.46499C9.09286 16.2072 8.79117 16.5089 8.79117 16.881C8.79117 17.2531 9.09286 17.5548 9.46499 17.5548H15.2661C15.7599 17.5548 16.2356 17.3746 16.6054 17.0474L20.332 13.751C20.6254 13.4914 21.1074 13.5062 21.3845 13.7832C21.6296 14.0175 21.6181 14.4445 21.3608 14.6653Z" fill="white"/>
<path d="M6.96289 11.4551H15.9473C16.3194 11.4551 16.6211 11.1534 16.6211 10.7812V10.2197C16.6211 8.15089 15.3985 6.36255 13.6381 5.53833C14.2636 4.95376 14.6558 4.12235 14.6558 3.20068C14.6558 1.43584 13.2199 0 11.4551 0C9.69019 0 8.25439 1.43584 8.25439 3.20068C8.25439 4.12239 8.64652 4.95376 9.2721 5.53833C7.51166 6.36255 6.28906 8.15089 6.28906 10.2197V10.7812C6.28906 11.1534 6.59076 11.4551 6.96289 11.4551ZM11.4551 1.34766C12.4768 1.34766 13.3081 2.17894 13.3081 3.20068C13.3081 4.22243 12.4768 5.05371 11.4551 5.05371C10.4333 5.05371 9.60205 4.22243 9.60205 3.20068C9.60205 2.17894 10.4333 1.34766 11.4551 1.34766ZM11.4551 6.40137C13.523 6.40137 15.2123 8.05364 15.2718 10.1074H7.63834C7.6979 8.05364 9.38714 6.40137 11.4551 6.40137Z" fill="white"/>
</svg>
