<svg width="22" height="23" viewBox="0 0 22 23" fill="none" xmlns="http://www.w3.org/2000/svg">
<path d="M18.7773 18.957H18.1328V16.698C18.1328 15.893 18.3338 15.0372 18.7473 14.0819C18.9098 13.7066 18.9922 13.3064 18.9922 12.8926C18.9922 11.5145 18.074 10.3571 16.8438 10.052V3.36914C16.8438 1.5114 15.3981 0 13.6211 0H0.644531C0.288578 0 0 0.301695 0 0.673828V22.3262C0 22.6983 0.288578 23 0.644531 23H21.3555C21.7114 23 22 22.6983 22 22.3262C22 20.4684 20.5543 18.957 18.7773 18.957ZM16.1992 11.3203C17.0285 11.3203 17.7031 12.0256 17.7031 12.8926C17.7031 13.1135 17.6593 13.3267 17.5729 13.5263C17.1531 14.4961 16.9185 15.3954 16.8593 16.2617H15.5391C15.4799 15.3954 15.2453 14.4961 14.8255 13.5263C14.7391 13.3267 14.6953 13.1135 14.6953 12.8926C14.6953 12.0256 15.37 11.3203 16.1992 11.3203ZM16.8438 17.6094V18.957H15.5547V17.6094H16.8438ZM14.2656 1.46355C14.8141 1.66692 15.2493 2.12193 15.4438 2.69531H14.2656V1.46355ZM10.4633 21.6523H1.28906V1.34766H12.9766V3.36914C12.9766 3.74127 13.2651 4.04297 13.6211 4.04297H15.5547V10.052C14.3244 10.3571 13.4062 11.5145 13.4062 12.8926C13.4062 13.3064 13.4886 13.7065 13.6511 14.0819C14.0646 15.0372 14.2656 15.893 14.2656 16.698V18.957H13.6211C12.0648 18.957 10.7627 20.1164 10.4633 21.6523ZM11.7979 21.6523C12.0639 20.868 12.7808 20.3047 13.6211 20.3047H18.7773C19.6176 20.3047 20.3345 20.868 20.6005 21.6523H11.7979Z" fill="white"/>
<path d="M3.22266 6.7832H13.6211C13.977 6.7832 14.2656 6.48151 14.2656 6.10938C14.2656 5.73724 13.977 5.43555 13.6211 5.43555H3.22266C2.8667 5.43555 2.57812 5.73724 2.57812 6.10938C2.57812 6.48151 2.8667 6.7832 3.22266 6.7832Z" fill="white"/>
<path d="M3.22266 9.47852H13.6211C13.977 9.47852 14.2656 9.17682 14.2656 8.80469C14.2656 8.43255 13.977 8.13086 13.6211 8.13086H3.22266C2.8667 8.13086 2.57812 8.43255 2.57812 8.80469C2.57812 9.17682 2.8667 9.47852 3.22266 9.47852Z" fill="white"/>
<path d="M11.9023 10.8262H3.22266C2.8667 10.8262 2.57812 11.1279 2.57812 11.5C2.57812 11.8721 2.8667 12.1738 3.22266 12.1738H11.9023C12.2583 12.1738 12.5469 11.8721 12.5469 11.5C12.5469 11.1279 12.2583 10.8262 11.9023 10.8262Z" fill="white"/>
<path d="M5.80078 13.5215C4.02381 13.5215 2.57812 15.0329 2.57812 16.8906C2.57812 18.7484 4.02381 20.2598 5.80078 20.2598C7.57775 20.2598 9.02344 18.7484 9.02344 16.8906C9.02344 15.0329 7.57775 13.5215 5.80078 13.5215ZM5.80078 18.9121C4.7346 18.9121 3.86719 18.0053 3.86719 16.8906C3.86719 15.776 4.7346 14.8691 5.80078 14.8691C6.86696 14.8691 7.73438 15.776 7.73438 16.8906C7.73438 18.0053 6.86696 18.9121 5.80078 18.9121Z" fill="white"/>
<path d="M5.80078 17.5645C6.15675 17.5645 6.44531 17.2628 6.44531 16.8906C6.44531 16.5185 6.15675 16.2168 5.80078 16.2168C5.44482 16.2168 5.15625 16.5185 5.15625 16.8906C5.15625 17.2628 5.44482 17.5645 5.80078 17.5645Z" fill="white"/>
</svg>
