<svg width="167" height="156" viewBox="0 0 167 156" fill="none" xmlns="http://www.w3.org/2000/svg">
<path d="M117.142 22.343C115.365 24.4447 114.49 27.1588 114.707 29.898L115.309 38.568H110.145V34.3863L109.991 21.8412C106.311 23.0121 94.3458 24.0993 86.8451 24.0296C74.7265 23.9181 62.6638 22.7891 62.6638 22.7891C61.1943 26.5314 60.0153 30.3806 59.1374 34.3027V34.3027V38.4844H53.9177L50.951 37.0905C50.951 37.0905 43.9541 10.6063 59.8091 8.45974C59.8091 8.45974 64.455 1.49024 72.5155 1.65751C82.5351 1.7969 108.396 7.80461 119.143 0.0823975C119.143 0.179971 123.411 15.1226 117.142 22.343Z" fill="#F3F3F3"/>
<path d="M166.665 155.447L154.644 120.223C152.811 114.853 149.699 110.004 145.576 106.092C141.453 102.179 136.441 99.3181 130.967 97.7535C118.037 94.0736 104.211 91.5924 101.72 91.1603C101.982 91.5627 102.293 91.9324 102.643 92.2615L84.6473 107.107L65.6017 92.2615C65.9532 91.919 66.2674 91.5406 66.5393 91.1324C64.5522 91.467 49.8446 93.9202 36.2706 97.7674C30.7408 99.307 25.6708 102.165 21.499 106.095C17.3272 110.024 14.1792 114.907 12.3272 120.321L0.334473 155.447H166.665Z" fill="#F3F3F3"/>
<path d="M103.791 91.0904C101.188 88.5535 99.677 81.0264 99.1313 74.9629C98.1285 75.6606 97.0762 76.2849 95.9827 76.8308C96.4724 81.0125 97.6479 88.0935 100.321 92.0382L84.6197 104.988L67.953 92.0382C70.7518 87.9541 71.8573 80.5804 72.3051 76.4405C71.2094 75.8484 70.1614 75.1727 69.1705 74.4193C68.6667 80.5525 67.1554 88.5117 64.4546 91.1461L63.0552 92.4564L84.6757 109.211L105.107 92.3588L103.791 91.0904Z" fill="#F3F3F3"/>
<path d="M84.7593 81.4991H84.2835C71.6891 80.4258 64.986 73.8466 61.6415 68.5219C59.4625 65.0426 58.033 61.1504 57.4434 57.0919V33.6186L57.6393 33.4931C58.4979 29.66 59.6679 25.9027 61.1377 22.2583L61.6275 21.2129L62.789 21.3104C62.915 21.3104 74.9217 22.4395 86.8304 22.551C94.3871 22.551 106.03 21.5335 109.458 20.4323L111.585 19.7493L111.781 34.4828V56.9943V57.078C111.207 61.1403 109.776 65.0356 107.583 68.5079C104.253 73.8327 97.6057 80.4119 84.9412 81.4852L84.7593 81.4991ZM84.5074 78.1956H84.6194C105.61 76.3835 108.213 58.3464 108.409 56.8131V34.5107L108.283 24.1261C101.165 25.3005 93.9614 25.8833 86.7464 25.8685C76.9508 25.7709 66.9872 25.0043 63.6286 24.7255C62.4604 27.9836 61.4838 31.3067 60.7039 34.678V56.841C60.8998 58.3325 63.5167 76.3835 84.5074 78.1956V78.1956Z" fill="#F3F3F3"/>
<path d="M59.0666 54.6115C54.0149 54.2769 53.4691 51.9213 53.4691 49.2728C53.4691 46.6244 52.5735 43.6972 50.9082 37.1877C49.243 30.6782 58.241 34.0375 58.241 34.0375L59.0107 35.9332L59.0666 54.6115Z" fill="#F3F3F3"/>
<path d="M117.225 37.1883C115.56 43.6839 114.566 46.5275 114.664 49.2735C114.776 51.7407 114.244 53.957 110.074 54.5285V34.4842L109.794 34.2472L109.878 34.0381C109.878 34.0381 118.876 30.7067 117.225 37.1883Z" fill="#F3F3F3"/>
<path d="M97.8578 76.9144C97.8578 76.9144 91.5326 87.8566 75.5517 86.4627L71.8293 99.2169L65.6021 92.2474L70.5839 75.9387C70.5839 75.9387 85.5992 82.5319 97.8578 76.9144Z" fill="#F3F3F3"/>
<path d="M108.745 48.074C108.745 58.6398 99.3828 64.8008 99.3828 64.8008C96.5841 57.4549 86.4945 57.1901 83.9896 57.2319C81.4847 57.2737 71.3952 57.4549 68.6804 64.8008C68.6804 64.8008 59.3185 58.6258 59.3185 48.074C59.3185 48.074 56.3518 77.6944 83.5978 79.7852H83.9896H84.3814C111.683 77.6944 108.745 48.074 108.745 48.074ZM84.0456 74.8648C79.6311 74.7124 75.3786 73.1704 71.899 70.46L73.3823 66.5571C74.9496 62.3754 82.2124 62.1942 83.6538 62.1942H84.4514C85.8508 62.1942 93.1556 62.4033 94.7229 66.5571L96.2062 70.46C92.7228 73.1731 88.465 74.7153 84.0456 74.8648V74.8648Z" fill="#F3F3F3"/>
</svg>
