<svg width="169" height="155" viewBox="0 0 169 155" fill="none" xmlns="http://www.w3.org/2000/svg">
<path d="M73.5155 154.353L77.8124 128.708L74.604 118.611L86.4777 110.279L98.3656 118.611L95.143 128.708L99.4399 154.353H168.92L157.462 121.322C155.563 115.881 152.356 110.973 148.116 107.019C143.876 103.065 138.729 100.181 133.113 98.6138C120.867 95.1963 107.804 92.8097 103.952 92.146L104.166 92.3578L85.7472 107.384L66.2682 92.3578L66.5117 92.1036C62.8164 92.725 48.8946 95.1681 36.0327 98.6986C30.412 100.256 25.2593 103.136 21.0178 107.092C16.7763 111.047 13.5732 115.96 11.6839 121.407L0.225586 154.353H73.5155Z" fill="#F3F3F3"/>
<path d="M105.872 91.4965C102.948 88.8508 101.413 80.705 100.916 74.5365V73.9934L98.0944 79.6607C98.7377 83.838 99.9657 89.185 102.29 92.4573L85.8725 105.379L68.4167 92.4155C71.209 88.447 72.4225 81.4012 72.9341 77.21L69.8348 73.158L69.7324 74.5504C69.2208 80.7189 67.6272 88.8647 64.7764 91.5104L63.3145 92.9028L85.8432 109.696L107.202 92.8611L105.872 91.4965Z" fill="#F3F3F3"/>
<path d="M118.168 32.7791L112.355 40.4116V33.2963C112.355 33.2963 103.01 25.5101 101.165 21.7358C91.1814 24.8298 80.44 24.8298 70.4566 21.7358C68.7436 24.3954 66.6552 26.8135 64.2511 28.9209C61.6933 31.3533 59.368 33.3243 59.368 33.3243V42.0332L52.3486 32.8071C52.3486 32.8071 51.651 7.645 64.9341 6.66648C64.9341 6.66648 70.9943 0.781344 83.4636 0.0823975H87.0532C99.5225 0.781344 105.583 6.66648 105.583 6.66648C118.851 7.67296 118.168 32.7791 118.168 32.7791Z" fill="#F3F3F3"/>
<path d="M86.0529 81.2775H85.5897C72.5631 80.1981 65.6156 73.5814 62.1708 68.2263C59.9012 64.7296 58.4214 60.8073 57.8286 56.7171V33.096L58.451 32.7035C60.9984 30.5306 67.7143 24.4326 69.0315 21.699L69.6828 20.3812L71.1302 20.8298C80.7315 23.8436 91.0703 23.8436 100.672 20.8298L102.119 20.3812L102.756 21.699C104.203 24.5027 110.963 30.6287 113.467 32.7455L114.06 33.2362V56.7171C113.451 60.8034 111.973 64.7226 109.718 68.2263C106.259 73.5814 99.3979 80.1981 86.2989 81.2775H86.0529ZM85.7779 77.9691H85.9081C107.619 76.1327 110.311 57.9928 110.514 56.4508V34.7502C108.531 33.0539 102.756 27.9652 100.281 24.3765C90.8324 27.0738 80.7812 27.0738 71.3328 24.3765C68.8867 27.9092 63.155 33.0259 61.201 34.7221V56.4508C61.3747 57.9788 64.0814 76.1327 85.7779 77.9691Z" fill="#F3F3F3"/>
<path d="M59.1997 54.2123C54.2349 53.8606 53.6833 51.4832 53.6833 48.8105C53.6833 46.1377 52.8144 43.1835 51.1733 36.6141C49.5322 30.0446 58.3998 33.4349 58.3998 33.4349L59.1583 35.3621L59.1997 54.2123Z" fill="#F3F3F3"/>
<path d="M119.325 36.6282C117.53 43.2152 116.46 46.1129 116.58 48.8834C116.686 51.3853 116.113 53.6469 111.634 54.2123V33.886L111.317 33.6599L111.423 33.4337C111.423 33.4337 121.119 30.0413 119.325 36.6282Z" fill="#F3F3F3"/>
<path d="M98.9731 76.7731C98.9731 76.7731 92.5181 87.6218 76.1741 86.2589L72.3838 98.8698L66.0571 91.9861L71.1299 75.8645C71.1299 75.8645 86.4907 82.3352 98.9731 76.7731Z" fill="#F3F3F3"/>
</svg>
