<svg width="163" height="155" viewBox="0 0 163 155" fill="none" xmlns="http://www.w3.org/2000/svg">
<path d="M50.6516 107.855C49.0012 104.713 47.9377 101.304 47.5119 97.7901C55.2721 96.072 61.8806 94.9221 64.2114 94.5298C67.2963 91.2289 68.5714 82.8955 69.0101 78.4718C58.7683 71.9376 57.5617 60.4522 57.5617 60.4522V38.6853C66.4411 34.2428 74.512 28.3776 81.4457 21.3286L107.496 38.1036V60.4522C107.496 60.4522 106.248 72.5329 95.266 78.9588C95.7458 83.5043 97.0484 91.4047 100.037 94.5568L100.202 94.7327C102.944 95.1791 107.989 96.0179 113.35 97.1813C112.991 100.907 111.911 104.53 110.169 107.855H125.676C125.21 105.298 124.744 102.593 124.305 99.7381C121.33 82.0026 118.574 66.2017 118.08 48.155C116.572 -8.01413 88.6986 -1.60176 79.3342 2.84903C75.0154 0.846849 46.3328 -8.89347 43.5906 41.2421C42.5349 60.6145 38.9564 80.7716 35.186 100.766C34.729 103.219 34.272 105.569 33.8149 107.814L50.6516 107.855Z" fill="#F3F3F3"/>
<path d="M162.447 154.676L151.26 122.52C149.444 117.307 146.375 112.607 142.316 108.821C138.257 105.035 133.328 102.276 127.951 100.78C126.718 100.428 125.484 100.103 124.236 99.7788C120.479 98.7913 116.736 97.9254 113.267 97.1814C111.759 112.915 97.5824 125.252 80.3618 125.252C63.3058 125.252 49.2661 113.239 47.4563 97.7902C43.5077 98.656 39.2299 99.6706 35.1167 100.807H34.9111C29.5432 102.3 24.624 105.06 20.5777 108.847C16.5315 112.635 13.4796 117.336 11.6853 122.547L0.552246 154.676H162.447Z" fill="#F3F3F3"/>
<path d="M82.8164 84.3153H82.3502C69.9421 83.2737 63.4433 76.9019 60.1664 71.7206C58.0228 68.348 56.6214 64.5686 56.0532 60.6274V37.8594V37.5889L57.0952 37.183C57.2323 37.183 71.5051 31.5147 79.4847 20.5974L80.3759 19.3799L109.305 37.2236V60.6139C108.737 64.5551 107.336 68.3345 105.192 71.707C101.723 76.9019 95.2245 83.2601 82.8164 84.3018V84.3153ZM82.5559 81.1091H82.6793C91.5363 80.3516 98.1449 76.6178 102.327 70.016C104.191 67.0723 105.431 63.7865 105.974 60.3569V38.9958L81.0888 23.6548C73.6988 32.9757 62.6069 38.2517 59.1518 39.7263V60.3569C59.3712 61.8314 61.9351 79.3505 82.4873 81.1091H82.5559Z" fill="#F3F3F3"/>
<path d="M102.312 95.0571L101.394 93.6232C98.8437 91.161 97.3629 83.8558 96.8145 77.9845C96.3392 78.3273 95.8319 78.6519 95.2926 78.9586C94.7991 79.2427 94.278 79.5268 93.7433 79.7838C93.7433 80.0273 93.7433 80.2843 93.8393 80.5549C84.6669 83.8423 74.4388 80.9472 70.5312 79.5673C70.5312 79.5673 70.5312 79.4321 70.5312 79.3644C69.9965 79.0803 69.4892 78.7827 68.9956 78.4716C68.5021 78.1604 67.9536 77.7681 67.46 77.4028C66.9664 83.3688 65.472 91.0799 62.8395 93.6367L61.9072 94.5295H64.0461L63.9638 94.7866L69.5989 101.754L73.7121 89.1994C84.9548 90.1599 91.3302 84.938 94.0312 81.9077C94.6208 85.9662 95.7725 91.2963 97.9662 94.5295L102.312 95.0571Z" fill="#F3F3F3"/>
<path d="M69.6676 101.7L50.1574 106.922C48.7804 104.039 47.8868 100.955 47.5112 97.7901C55.2715 96.072 60.742 94.6921 63.0728 94.2998C63.0728 94.2998 64.3068 94.4351 64.3479 94.381L64.7181 94.5163L69.6676 101.7Z" fill="#F3F3F3"/>
</svg>
