<svg width="164" height="156" viewBox="0 0 164 156" fill="none" xmlns="http://www.w3.org/2000/svg">
<path d="M163.725 155.435L152.021 121.307C150.202 116.006 147.127 111.225 143.06 107.373C138.993 103.521 134.055 100.712 128.668 99.188C116.922 95.8453 104.394 93.5343 100.712 92.874C100.769 92.9492 100.833 93.0184 100.904 93.0804L83.2518 107.717L64.569 93.0804C64.6515 93.0804 63.992 92.9153 64.0745 92.8328C60.5302 93.438 47.5896 95.804 35.4458 99.243C30.0931 100.767 25.1878 103.565 21.1478 107.397C17.1078 111.229 14.0529 115.983 12.2433 121.252L0.539062 155.38L163.725 155.435Z" fill="#F3F3F3"/>
<path d="M86.5735 0.576416C40.6588 0.576416 48.0068 52.2075 48.9271 64.5419C50.0425 78.909 69.521 85.1449 69.521 85.1449L84.2868 84.1559L95.5807 85.1449C95.5807 85.1449 116.314 78.964 117.43 64.5419C118.42 52.2075 125.28 0.768711 86.5735 0.576416ZM108.478 59.2812C108.478 59.2812 106.317 79.9529 83.1992 81.8896H82.9343C59.8166 79.9529 57.6554 59.2812 57.6554 59.2812V37.1811C57.6554 37.1811 86.1133 30.5195 92.7084 24.0364C92.7084 24.0364 100.572 32.6896 108.52 37.3871L108.478 59.2812Z" fill="#F3F3F3"/>
<path d="M102.914 92.0737C100.318 89.5151 98.8109 81.9096 98.2526 75.8084C97.2606 76.5171 96.2153 77.1469 95.1262 77.6922C95.6147 81.9096 96.7732 89.0512 99.4529 93.0296L83.7791 106.09L67.1701 93.0296C69.9616 88.9106 71.0642 81.4738 71.5108 77.2986C70.4179 76.7015 69.3727 76.0199 68.3844 75.2601C67.8819 81.4457 66.3606 89.4729 63.6809 92.1299L62.2852 93.4514L83.807 110.405L104.184 93.4092L102.914 92.0737Z" fill="#F3F3F3"/>
<path d="M96.4664 79.5221C96.4664 79.5221 90.1823 90.3636 74.34 88.9825L70.65 101.619L64.4907 94.714L69.4293 78.5553C69.4293 78.5553 84.3143 85.0878 96.4664 79.5221Z" fill="#F3F3F3"/>
<path d="M83.8901 82.9481H83.4178C70.8451 81.8945 64.26 75.4362 60.9397 70.2094C58.7677 66.7983 57.3477 62.9757 56.772 58.9894V35.496L58.064 35.2087C66.1633 33.4436 88.3079 27.7652 93.4065 22.7436L94.7957 21.4437L95.9349 22.8941C95.9349 22.9762 102.464 31.1038 110.008 35.6054L110.8 36.0707V58.9757C110.224 62.962 108.804 66.7846 106.632 70.1957C103.312 75.4225 96.7268 81.8808 84.1541 82.9344L83.8901 82.9481ZM83.6262 79.7053H83.7512C92.7257 78.939 99.422 75.1625 103.659 68.4853C105.553 65.5052 106.81 62.1765 107.355 58.7021V37.8905C102.454 34.6124 98.0487 30.6693 94.2678 26.178C86.5853 31.7469 65.4826 36.8232 59.9672 38.082V58.7158C60.1339 60.2072 62.7319 77.9265 83.5567 79.7053H83.6262Z" fill="#F3F3F3"/>
</svg>
