<svg width="275" height="276" viewBox="0 0 275 276" fill="none" xmlns="http://www.w3.org/2000/svg">
<path d="M16.8789 240.726C22.7058 245.325 31.869 247.095 43.5925 246.253C55.3093 245.41 69.488 241.963 85.2065 236.226C116.638 224.754 154.11 204.17 190.155 177.184C226.199 150.198 253.957 121.946 269.706 98.0954C277.582 86.1679 282.439 75.3632 283.844 66.3815C285.249 57.3947 283.19 50.3063 277.363 45.7069C271.537 41.1076 262.373 39.3379 250.65 40.1805C238.933 41.0227 224.754 44.4699 209.036 50.2069C177.604 61.679 140.132 82.2636 104.088 109.249C68.0435 136.235 40.2852 164.487 24.5365 188.338C16.6607 200.265 11.8032 211.07 10.3984 220.052C8.9929 229.038 11.052 236.127 16.8789 240.726Z" stroke="white"/>
<path d="M137.5 216.921H120.867C148.773 197.41 204.697 158.495 205.141 158.933C209.133 161.121 211.24 164.221 211.794 165.498L137.5 216.921Z" fill="#C4C4C4"/>
<path d="M173.184 76.7649C174.801 73.1308 174.024 64.7988 173.433 61.0871L164.339 60.9466L85.7113 102.856C86.2987 106.786 87.5929 115.3 88.0711 117.921L89.2665 124.474C116.565 110.085 171.567 80.399 173.184 76.7649Z" fill="#C4C4C4"/>
<path d="M-11.0371 207.805C-5.74203 211.774 2.42453 213.186 12.7937 212.235C23.1571 211.285 35.6294 207.982 49.4031 202.619C76.9452 191.895 109.576 172.978 140.748 148.404C171.919 123.83 195.697 98.2769 208.95 76.8407C215.578 66.1207 219.559 56.4526 220.533 48.4644C221.508 40.4718 219.467 34.2314 214.172 30.2621C208.877 26.2928 200.711 24.8817 190.341 25.832C179.978 26.7819 167.506 30.0849 153.732 35.4481C126.19 46.1726 93.5595 65.0892 62.3876 89.6635C31.2158 114.238 7.43785 139.79 -5.81491 161.227C-12.4425 171.947 -16.4238 181.615 -17.3981 189.603C-18.3729 197.595 -16.3321 203.836 -11.0371 207.805Z" stroke="white"/>
<rect width="15.5084" height="19.7147" transform="matrix(0.961626 0.274362 -0.28123 0.959641 54.3345 189.565)" fill="#C4C4C4"/>
<rect width="15.5226" height="19.6961" transform="matrix(0.996306 -0.0858697 0.0881834 0.996104 168.987 103.962)" fill="#C4C4C4"/>
<path d="M175.085 124.827C176.105 121.447 174.639 114.104 173.779 110.855L166.049 111.558L103.39 156.011C104.268 159.454 106.19 166.912 106.85 169.2L108.498 174.922C130.269 159.632 174.064 128.208 175.085 124.827Z" fill="#C4C4C4"/>
<path fill-rule="evenodd" clip-rule="evenodd" d="M61.8084 39.2377L48.79 36.8343L61.9261 34.4091L64.3145 21.0708L66.6814 34.2896L79.8384 36.8343L66.7983 39.3563L64.3145 52.5973L61.8084 39.2377Z" fill="white"/>
<path fill-rule="evenodd" clip-rule="evenodd" d="M222.896 149.556L234.65 141.822L236.87 155.956L239.912 141.987L251.2 150.449L243.571 138.509L257.478 136.263L243.849 133.177L252.034 121.714L240.151 129.391L238.059 115.314L235.148 129.229L223.732 120.819L231.305 132.892L217.455 135.008L231.283 138.016L222.896 149.556Z" fill="white"/>
<path d="M170.471 32.597C170.471 36.37 167.46 39.4156 163.763 39.4156C160.065 39.4156 157.055 36.37 157.055 32.597C157.055 28.8239 160.065 25.7783 163.763 25.7783C167.46 25.7783 170.471 28.8239 170.471 32.597Z" fill="#C4C4C4" stroke="white"/>
<path d="M66.8669 243.487C66.8669 248.193 63.1119 251.994 58.496 251.994C53.88 251.994 50.125 248.193 50.125 243.487C50.125 238.781 53.88 234.979 58.496 234.979C63.1119 234.979 66.8669 238.781 66.8669 243.487Z" fill="#C4C4C4" stroke="white"/>
</svg>
