<svg width="13" height="14" viewBox="0 0 13 14" fill="none" xmlns="http://www.w3.org/2000/svg">
<path d="M12.9873 9.85349L10.7529 13.474L9.83211 12.9047L12.0665 9.28419L12.9873 9.85349ZM4.21232 1.45765L3.6452 0.533569L-0.00292969 2.76632L0.562029 3.68986L4.21232 1.45765ZM10.9312 3.33507L11.9603 2.3059L11.1955 1.5389L10.1712 2.56319C9.43162 1.9767 8.52728 1.63595 7.58457 1.58855C6.64186 1.54116 5.7079 1.7895 4.91324 2.29886L1.25049 4.32957C1.05557 4.4585 0.891755 4.62917 0.770914 4.82921C0.650073 5.02925 0.575226 5.25365 0.551791 5.48618C0.528357 5.71871 0.556923 5.95354 0.635419 6.17366C0.713916 6.39379 0.840379 6.59371 1.00565 6.75894L6.73865 12.4941C6.88407 12.6411 7.05717 12.7578 7.24795 12.8374C7.43873 12.9171 7.6434 12.9582 7.85015 12.9583C7.91805 12.9582 7.98588 12.954 8.05328 12.9459C8.29109 12.9169 8.51902 12.8335 8.71939 12.7021C8.91976 12.5708 9.08718 12.3951 9.20865 12.1886L11.3363 8.40453C11.7781 7.6143 11.9754 6.71074 11.9033 5.8083C11.8311 4.90585 11.4928 4.0451 10.9312 3.33507ZM1.62532 10.4033C1.62214 10.8471 1.73442 11.2841 1.95113 11.6714C2.16785 12.0587 2.48155 12.383 2.86145 12.6124C3.24135 12.8419 3.67439 12.9686 4.11805 12.9801C4.56171 12.9917 5.00075 12.8877 5.39207 12.6783L1.92865 9.21161C1.73194 9.57818 1.6278 9.98727 1.62532 10.4033Z" fill="#6B7D7C"/>
</svg>
