<svg width="20" height="12" viewBox="0 0 20 12" fill="#C4C4C4" xmlns="http://www.w3.org/2000/svg">
<path d="M19.2841 2.56534L10.2841 0.0390285C10.0987 -0.0130095 9.90127 -0.0130095 9.71587 0.0390285L0.715847 2.56534C0.291259 2.6845 0 3.05407 0 3.4736C0 3.89312 0.291259 4.2627 0.715847 4.38186L4.00009 5.30377L4.00016 9.5294C4.00009 9.53198 4.00009 9.53451 4.00009 9.53704C4.00009 11.355 7.23221 12 10 12C12.7678 12 15.9999 11.355 15.9999 9.53704C15.9999 9.53697 15.9999 9.53685 15.9999 9.53678C15.9999 9.53672 15.9999 9.53666 15.9999 9.5366V5.30371L18.0001 4.74228V11.0527C18.0001 11.5759 18.4478 12 19 12C19.5523 12 20 11.5759 20 11.0527V3.4736C19.9999 3.05407 19.7087 2.68457 19.2841 2.56534ZM10 1.93532L15.4803 3.4736L10 5.01188L4.51975 3.4736L10 1.93532ZM13.9999 9.37884C13.6305 9.65425 12.2014 10.1054 10 10.1054C7.79859 10.1054 6.36943 9.65425 6.00004 9.37884V5.86514L9.71587 6.90817C9.80861 6.93419 9.90427 6.9472 10 6.9472C10.0957 6.9472 10.1914 6.93419 10.2841 6.90817L14 5.86514L13.9999 9.37884Z"/>
</svg>
