<svg width="13" height="14" viewBox="0 0 13 14" fill="none" xmlns="http://www.w3.org/2000/svg">
<path d="M13 5.91667V13.5H0V5.91667H13ZM13 4.83333V3.20833C13 2.77736 12.8288 2.36403 12.524 2.05928C12.2193 1.75454 11.806 1.58333 11.375 1.58333H9.75V0.5H8.66667V1.58333H4.33333V0.5H3.25V1.58333H1.625C1.19402 1.58333 0.780698 1.75454 0.475951 2.05928C0.171205 2.36403 0 2.77736 0 3.20833L0 4.83333H13ZM9.75 8.08333H8.66667V9.16667H9.75V8.08333ZM7.04167 8.08333H5.95833V9.16667H7.04167V8.08333ZM4.33333 8.08333H3.25V9.16667H4.33333V8.08333ZM9.75 10.25H8.66667V11.3333H9.75V10.25ZM7.04167 10.25H5.95833V11.3333H7.04167V10.25ZM4.33333 10.25H3.25V11.3333H4.33333V10.25Z" fill="#5E7865"/>
</svg>
