<svg width="13" height="14" viewBox="0 0 13 14" fill="none" xmlns="http://www.w3.org/2000/svg">
<g clip-path="url(#clip0_1553_11042)">
<path d="M3.25 4.83362H1.625C1.19402 4.83362 0.780698 5.00482 0.475951 5.30957C0.171205 5.61432 0 6.02764 0 6.45862L0 10.792C0 11.2229 0.171205 11.6363 0.475951 11.941C0.780698 12.2457 1.19402 12.417 1.625 12.417H3.25V4.83362Z" fill="#D12C2C"/>
<path d="M7.583 4.83319L7.88363 3.03052C7.9357 2.76188 7.89662 2.48355 7.7726 2.23962C7.64858 1.9957 7.4467 1.80014 7.19896 1.68394C6.91484 1.5599 6.59409 1.54896 6.30218 1.65334C6.01026 1.75773 5.76918 1.96958 5.62813 2.24565L4.33301 4.83319V12.4165H11.9163L12.9997 6.45819V4.83319H7.583Z" fill="#D12C2C"/>
</g>
<defs>
<clipPath id="clip0_1553_11042">
<rect width="13" height="13" fill="white" transform="translate(0 0.5)"/>
</clipPath>
</defs>
</svg>
