<svg width="20" height="12" viewBox="0 0 20 12" fill="none" xmlns="http://www.w3.org/2000/svg">
<path d="M19.1004 2.87495L10.7004 11.3C10.6004 11.4 10.4921 11.4706 10.3754 11.512C10.2587 11.554 10.1337 11.575 10.0004 11.575C9.86706 11.575 9.74206 11.554 9.62539 11.512C9.50872 11.4706 9.40039 11.4 9.30039 11.3L0.875391 2.87495C0.642057 2.64162 0.525391 2.34995 0.525391 1.99995C0.525391 1.64995 0.650391 1.34995 0.900391 1.09995C1.15039 0.849952 1.44206 0.724952 1.77539 0.724952C2.10872 0.724952 2.40039 0.849952 2.65039 1.09995L10.0004 8.44995L17.3504 1.09995C17.5837 0.866618 17.8711 0.749951 18.2124 0.749951C18.5544 0.749951 18.8504 0.874951 19.1004 1.12495C19.3504 1.37495 19.4754 1.66662 19.4754 1.99995C19.4754 2.33328 19.3504 2.62495 19.1004 2.87495Z" fill="#151515"/>
</svg>
