<svg width="482" height="433" viewBox="0 0 482 433" fill="none" xmlns="http://www.w3.org/2000/svg">
<path d="M396.837 103.538C401.98 111.113 402.032 121.732 397.539 134.569C393.051 147.395 384.057 162.332 371.288 178.429C345.752 210.62 305.187 247.358 255.643 281C206.098 314.641 156.987 338.793 117.647 350.653C97.9743 356.584 80.7731 359.433 67.1962 358.874C53.6074 358.315 43.7561 354.35 38.6126 346.775C33.469 339.2 33.4174 328.581 37.9101 315.744C42.3989 302.918 51.392 287.981 64.1618 271.883C89.6976 239.693 130.262 202.954 179.807 169.313C229.351 135.672 278.463 111.52 317.802 99.6595C337.475 93.7282 354.676 90.8794 368.253 91.4382C381.842 91.9975 391.693 95.9627 396.837 103.538Z" stroke="#151515"/>
<path d="M380.375 180.281C384.276 186.026 384.327 194.098 380.898 203.895C377.473 213.682 370.608 225.087 360.851 237.387C341.341 261.98 310.345 290.054 272.482 315.764C234.618 341.473 197.09 359.928 167.034 368.99C152.004 373.521 138.87 375.695 128.51 375.269C118.139 374.842 110.655 371.817 106.754 366.072C102.853 360.327 102.802 352.255 106.231 342.458C109.656 332.671 116.521 321.266 126.278 308.966C145.788 284.373 176.784 256.299 214.647 230.589C252.511 204.88 290.039 186.425 320.095 177.363C335.126 172.832 348.259 170.658 358.619 171.084C368.99 171.511 376.474 174.536 380.375 180.281Z" stroke="#151515"/>
<circle cx="265" cy="123" r="23.5" fill="#D1966B" stroke="#151515"/>
<circle cx="123" cy="421" r="12" fill="#C4C4C4"/>
<path fill-rule="evenodd" clip-rule="evenodd" d="M334.823 34.6154L347.583 28.8845L347.65 42.9475L352.758 29.8422L362.615 39.7692L356.884 27.0098L370.948 26.9421L357.962 21.881L367.769 11.9796L354.891 17.6344L354.941 3.645L349.971 16.7194L339.979 6.823L345.634 19.7014L331.646 19.6516L344.841 24.6678L334.823 34.6154Z" fill="white"/>
</svg>
