<svg width="436" height="377" viewBox="0 0 436 377" fill="none" xmlns="http://www.w3.org/2000/svg">
<path d="M396.837 56.5378C401.98 64.1129 402.032 74.7321 397.539 87.5689C393.051 100.395 384.057 115.332 371.288 131.429C345.752 163.62 305.187 200.358 255.643 234C206.098 267.641 156.987 291.793 117.647 303.653C97.9743 309.584 80.7731 312.433 67.1962 311.874C53.6074 311.315 43.7561 307.35 38.6126 299.775C33.469 292.2 33.4174 281.581 37.9101 268.744C42.3989 255.918 51.392 240.981 64.1618 224.883C89.6976 192.693 130.262 155.954 179.807 122.313C229.351 88.6718 278.463 64.5201 317.802 52.6595C337.475 46.7282 354.676 43.8794 368.253 44.4382C381.842 44.9975 391.693 48.9627 396.837 56.5378Z" stroke="black"/>
<path d="M380.375 147.281C384.276 153.026 384.327 161.098 380.898 170.895C377.473 180.682 370.608 192.087 360.851 204.387C341.341 228.98 310.345 257.054 272.482 282.764C234.618 308.473 197.09 326.928 167.034 335.99C152.004 340.521 138.87 342.695 128.51 342.269C118.139 341.842 110.655 338.817 106.754 333.072C102.853 327.327 102.802 319.255 106.231 309.458C109.656 299.671 116.521 288.266 126.278 275.966C145.788 251.373 176.784 223.299 214.647 197.589C252.511 171.88 290.039 153.425 320.095 144.363C335.126 139.832 348.259 137.658 358.619 138.084C368.99 138.511 376.474 141.536 380.375 147.281Z" stroke="black"/>
<circle cx="286" cy="157" r="23.5" fill="#D1966B" stroke="black"/>
<path fill-rule="evenodd" clip-rule="evenodd" d="M165.641 34.1167L143 30.0002L165.846 25.8464L170 3L174.116 25.6414L197 30.0002L174.32 34.3202L170 57L165.641 34.1167Z" fill="white"/>
</svg>
