<svg width="442" height="293" viewBox="0 0 442 293" fill="none" xmlns="http://www.w3.org/2000/svg">
<path d="M108.691 246.022C112.861 252.322 120.825 257.107 131.79 260.327C142.754 263.546 156.648 265.178 172.548 265.2C204.343 265.246 244.036 258.858 284.073 246.011C324.111 233.164 356.871 216.303 377.475 199.443C387.779 191.012 395.023 182.597 398.63 174.703C402.237 166.807 402.186 159.483 398.015 153.183C393.845 146.883 385.881 142.098 374.916 138.878C363.952 135.659 350.058 134.027 334.158 134.004C302.363 133.958 262.671 140.346 222.633 153.194C182.595 166.041 149.835 182.902 129.231 199.762C118.927 208.193 111.683 216.608 108.076 224.502C104.469 232.398 104.521 239.722 108.691 246.022Z" stroke="black"/>
<path fill-rule="evenodd" clip-rule="evenodd" d="M54.2292 48.2627L40.916 45.8407L54.3496 43.3967L56.7921 29.9553L59.2126 43.2763L72.6676 45.8407L59.3322 48.3823L56.7921 61.7259L54.2292 48.2627Z" fill="#D1966B"/>
<path fill-rule="evenodd" clip-rule="evenodd" d="M388.492 111.066L399.25 104.333L401.051 116.971L404.021 104.554L414.107 112.261L407.378 101.496L420.009 99.6946L407.712 96.7509L415.301 86.6325L404.427 93.3116L402.74 80.7262L399.891 93.0978L389.688 85.4355L396.363 96.3165L383.785 98.0029L396.265 100.88L388.492 111.066Z" fill="black"/>
<path d="M223.551 192.584L223.691 193.064L223.551 192.584ZM436.378 24.3876L436.775 24.0834L436.775 24.0834L436.378 24.3876ZM141.415 64.736L141.175 64.2971L141.415 64.736ZM213.569 90.6067C213.683 90.3551 213.571 90.0589 213.319 89.9452L209.218 88.0925C208.967 87.9788 208.671 88.0906 208.557 88.3423C208.443 88.5939 208.555 88.8901 208.807 89.0038L212.452 90.6507L210.805 94.2959C210.691 94.5476 210.803 94.8437 211.055 94.9574C211.306 95.0711 211.603 94.9593 211.716 94.7076L213.569 90.6067ZM2.36802 155.481C0.110494 160.823 -0.0604925 166.023 1.63665 170.944C3.33013 175.855 6.8701 180.451 11.9717 184.628C22.1679 192.976 38.6938 199.725 59.6214 204.01C101.492 212.584 161.18 211.335 223.691 193.064L223.41 192.104C161.038 210.335 101.516 211.568 59.822 203.031C38.9673 198.76 22.6221 192.055 12.6052 183.854C7.60011 179.756 4.19793 175.304 2.58202 170.618C0.969785 165.943 1.12219 160.998 3.28913 155.871L2.36802 155.481ZM223.691 193.064C301.799 170.235 361.482 136.512 398.444 104.289C416.921 88.1808 429.745 72.4258 436.341 58.5704C442.932 44.7252 443.35 32.6584 436.775 24.0834L435.981 24.6919C442.223 32.8319 441.958 44.4439 435.438 58.1406C428.923 71.8271 416.207 87.4769 397.787 103.536C360.953 135.647 301.406 169.308 223.41 192.104L223.691 193.064ZM436.775 24.0834C433.679 20.046 428.228 16.8627 420.957 14.4573C413.675 12.0483 404.508 10.4002 393.907 9.47504C372.703 7.62465 345.693 8.66141 316.402 12.3413C257.824 19.7005 190.03 37.6424 141.175 64.2971L141.654 65.175C190.364 38.5993 258.026 20.683 316.526 13.3335C345.774 9.6591 372.709 8.62896 393.82 10.4713C404.377 11.3925 413.461 13.0305 420.643 15.4067C427.837 17.7865 433.064 20.8873 435.981 24.6919L436.775 24.0834ZM141.175 64.2971C131.402 69.629 124.132 74.4339 119.029 78.7153C113.936 82.9875 110.953 86.7781 109.835 90.0939C109.272 91.7615 109.179 93.3192 109.537 94.7531C109.895 96.1867 110.697 97.4601 111.867 98.5742C114.193 100.789 118.004 102.404 122.872 103.472C132.625 105.611 146.885 105.607 162.858 103.502C178.84 101.395 196.575 97.1804 213.29 90.8686L212.937 89.9331C196.298 96.216 178.638 100.413 162.727 102.51C146.806 104.608 132.677 104.598 123.086 102.495C118.283 101.442 114.685 99.8773 112.556 97.85C111.499 96.843 110.812 95.7297 110.507 94.5106C110.202 93.2919 110.271 91.9309 110.782 90.4135C111.813 87.3591 114.626 83.7139 119.671 79.4814C124.706 75.258 131.914 70.4892 141.654 65.175L141.175 64.2971Z" fill="black"/>
<path d="M177.401 263.242C177.401 271.489 170.72 278.174 162.479 278.174C154.238 278.174 147.557 271.489 147.557 263.242C147.557 254.996 154.238 248.311 162.479 248.311C170.72 248.311 177.401 254.996 177.401 263.242Z" fill="#F3F3F3" stroke="black"/>
<path d="M371.539 9.07731C371.539 13.8147 367.701 17.6546 362.967 17.6546C358.234 17.6546 354.396 13.8147 354.396 9.07731C354.396 4.33991 358.234 0.5 362.967 0.5C367.701 0.5 371.539 4.33991 371.539 9.07731Z" fill="#F3F3F3" stroke="black"/>
<ellipse cx="57.2594" cy="201.516" rx="8.16468" ry="8.16958" fill="#D1966B"/>
<path fill-rule="evenodd" clip-rule="evenodd" d="M359.533 252.702L351.355 251.215L359.607 249.713L361.108 241.456L362.595 249.639L370.86 251.215L362.668 252.776L361.108 260.972L359.533 252.702Z" fill="#B4B4B4"/>
</svg>
