<svg width="440" height="360" viewBox="0 0 440 360" fill="none" xmlns="http://www.w3.org/2000/svg">
<g clip-path="url(#clip0_785_9962)">
<path d="M2.66082 293.152C4.26171 294.204 6.96699 294.392 10.8719 293.581C14.7509 292.775 19.6563 291.013 25.4707 288.359C37.0927 283.053 52.2248 274.236 69.8304 262.586C105.035 239.29 150.058 204.714 196.548 164.38C243.038 124.046 282.178 85.6031 307.877 56.0591C320.729 41.2844 330.205 28.7505 335.562 19.3261C338.242 14.6111 339.876 10.6991 340.398 7.68672C340.924 4.65416 340.304 2.65667 338.703 1.60438C337.102 0.55209 334.397 0.363934 330.492 1.17521C326.613 1.9811 321.707 3.7428 315.893 6.39741C304.271 11.7035 289.139 20.5201 271.533 32.17C236.329 55.4656 191.306 90.0416 144.816 130.376C98.3259 170.71 59.186 209.153 33.4871 238.697C20.6352 253.472 11.1584 266.005 5.80179 275.43C3.12189 280.145 1.48776 284.057 0.96569 287.069C0.440102 290.102 1.05993 292.099 2.66082 293.152Z" stroke="#151515"/>
<path d="M54.8291 350.715C55.4965 351.177 56.4706 351.43 57.8115 351.43C59.1569 351.43 60.8299 351.173 62.8273 350.651C66.8213 349.607 71.9935 347.53 78.2125 344.497C90.6429 338.433 107.143 328.602 126.57 315.754C165.416 290.061 215.901 252.345 268.811 208.695C321.722 165.046 367.028 123.738 397.505 92.2415C412.746 76.4907 424.266 63.2057 431.176 53.3141C434.633 48.3651 436.92 44.2879 437.95 41.1878C438.465 39.6375 438.658 38.3547 438.542 37.3409C438.426 36.3304 438.009 35.6183 437.341 35.1555C436.674 34.6926 435.7 34.4398 434.359 34.4401C433.014 34.4404 431.341 34.6966 429.343 35.219C425.349 36.2635 420.177 38.3399 413.958 41.3734C401.528 47.4367 385.027 57.268 365.601 70.1163C326.754 95.809 276.27 133.525 223.359 177.175C170.448 220.824 125.142 262.132 94.6652 293.629C79.4245 309.379 67.9041 322.664 60.9942 332.556C57.5371 337.505 55.2502 341.582 54.2202 344.682C53.7052 346.233 53.5126 347.515 53.6286 348.529C53.7443 349.54 54.1617 350.252 54.8291 350.715Z" stroke="#C4C4C4"/>
<ellipse cx="43" cy="277.5" rx="9" ry="8.5" fill="#D1966B"/>
<path fill-rule="evenodd" clip-rule="evenodd" d="M392.654 320.011L373 316.438L392.832 312.832L396.438 293L400.011 312.654L419.875 316.438L400.188 320.188L396.438 339.875L392.654 320.011Z" fill="#D1966B"/>
<path fill-rule="evenodd" clip-rule="evenodd" d="M390.899 99.4858L401.847 91.3153L404.895 104.707L406.983 91.1309L418.484 98.5017L410.314 87.5547L423.707 84.5059L410.255 82.4369L417.502 70.9175L406.426 79.0405L403.505 65.6949L401.542 79.2131L389.916 71.8992L398.039 82.9753L384.695 85.8959L398.339 87.8776L390.899 99.4858Z" fill="#C4C4C4"/>
<path fill-rule="evenodd" clip-rule="evenodd" d="M97.8033 34.0986L89 32.498L97.8831 30.8829L99.4981 22L101.099 30.8033L109.996 32.498L101.178 34.1777L99.4981 42.9963L97.8033 34.0986Z" fill="#C4C4C4"/>
</g>
<defs>
<clipPath id="clip0_785_9962">
<rect width="440" height="360" fill="white"/>
</clipPath>
</defs>
</svg>
