<svg width="38" height="38" viewBox="0 0 38 38"  fill="#D1966B" xmlns="http://www.w3.org/2000/svg">
<path d="M21.9551 19C21.9551 20.6323 20.6318 21.9555 18.9995 21.9555C17.3672 21.9555 16.0439 20.6323 16.0439 19C16.0439 17.3676 17.3672 16.0444 18.9995 16.0444C20.6318 16.0444 21.9551 17.3676 21.9551 19Z"/>
<path d="M26.628 13.2286C26.4712 12.8037 26.2211 12.4191 25.8961 12.1035C25.5804 11.7784 25.1961 11.5283 24.7709 11.3715C24.4261 11.2376 23.9082 11.0782 22.9541 11.0347C21.9221 10.9877 21.6126 10.9775 18.9999 10.9775C16.3869 10.9775 16.0774 10.9874 15.0457 11.0345C14.0916 11.0782 13.5734 11.2376 13.2289 11.3715C12.8037 11.5283 12.4191 11.7784 12.1037 12.1035C11.7787 12.4191 11.5285 12.8034 11.3715 13.2286C11.2376 13.5734 11.0782 14.0916 11.0347 15.0457C10.9877 16.0774 10.9775 16.3869 10.9775 18.9999C10.9775 21.6126 10.9877 21.9221 11.0347 22.9541C11.0782 23.9082 11.2376 24.4261 11.3715 24.7709C11.5285 25.1961 11.7784 25.5804 12.1035 25.8961C12.4191 26.2211 12.8034 26.4712 13.2286 26.628C13.5734 26.7622 14.0916 26.9216 15.0457 26.965C16.0774 27.0121 16.3866 27.022 18.9996 27.022C21.6129 27.022 21.9223 27.0121 22.9539 26.965C23.9079 26.9216 24.4261 26.7622 24.7709 26.628C25.6243 26.2988 26.2988 25.6243 26.628 24.7709C26.762 24.4261 26.9214 23.9082 26.965 22.9541C27.0121 21.9221 27.022 21.6126 27.022 18.9999C27.022 16.3869 27.0121 16.0774 26.965 15.0457C26.9216 14.0916 26.7622 13.5734 26.628 13.2286ZM18.9999 24.0244C16.2246 24.0244 13.9749 21.7749 13.9749 18.9996C13.9749 16.2244 16.2246 13.9749 18.9999 13.9749C21.7749 13.9749 24.0247 16.2244 24.0247 18.9996C24.0247 21.7749 21.7749 24.0244 18.9999 24.0244ZM24.2233 14.9505C23.5748 14.9505 23.049 14.4247 23.049 13.7762C23.049 13.1277 23.5748 12.6019 24.2233 12.6019C24.8718 12.6019 25.3976 13.1277 25.3976 13.7762C25.3973 14.4247 24.8718 14.9505 24.2233 14.9505Z" />
<path d="M19 0C8.50819 0 0 8.50819 0 19C0 29.4918 8.50819 38 19 38C29.4918 38 38 29.4918 38 19C38 8.50819 29.4918 0 19 0ZM29.8443 23.4981C29.7916 24.6595 29.6069 25.4524 29.3373 26.1465C28.7705 27.612 27.612 28.7705 26.1465 29.3373C25.4527 29.6069 24.6595 29.7913 23.4984 29.8443C22.3349 29.8974 21.9632 29.9102 19.0003 29.9102C16.037 29.9102 15.6657 29.8974 14.5019 29.8443C13.3408 29.7913 12.5476 29.6069 11.8538 29.3373C11.1256 29.0633 10.4663 28.6339 9.92125 28.0788C9.36635 27.534 8.93698 26.8744 8.66301 26.1465C8.39339 25.4527 8.20871 24.6595 8.15594 23.4984C8.10231 22.3346 8.08984 21.963 8.08984 19C8.08984 16.037 8.10231 15.6654 8.15565 14.5019C8.20842 13.3405 8.39281 12.5476 8.66243 11.8535C8.9364 11.1256 9.36606 10.466 9.92125 9.92125C10.466 9.36606 11.1256 8.93669 11.8535 8.66272C12.5476 8.3931 13.3405 8.20871 14.5019 8.15565C15.6654 8.1026 16.037 8.08984 19 8.08984C21.963 8.08984 22.3346 8.1026 23.4981 8.15594C24.6595 8.20871 25.4524 8.3931 26.1465 8.66243C26.8744 8.9364 27.534 9.36606 28.079 9.92125C28.6339 10.4663 29.0636 11.1256 29.3373 11.8535C29.6072 12.5476 29.7916 13.3405 29.8446 14.5019C29.8977 15.6654 29.9102 16.037 29.9102 19C29.9102 21.963 29.8977 22.3346 29.8443 23.4981Z"/>
</svg>
