<svg width="680" height="483" viewBox="0 0 680 483" fill="none" xmlns="http://www.w3.org/2000/svg">
<path d="M649.326 96.9099C655.197 110.054 652.474 126.387 642.33 144.753C632.191 163.109 614.686 183.405 591.178 204.393C544.167 246.366 473.238 291.032 389.532 328.427C305.827 365.821 225.23 388.847 162.599 395.855C131.28 399.359 104.483 398.855 84.0457 394.158C63.598 389.458 49.6151 380.588 43.7434 367.445C37.8717 354.301 40.5953 337.968 50.7391 319.602C60.8778 301.246 78.3829 280.95 101.891 259.962C148.902 217.989 219.831 173.322 303.537 135.928C387.242 98.5337 467.839 75.5082 530.47 68.5002C561.789 64.9958 588.586 65.5 609.023 70.197C629.471 74.8963 643.454 83.7663 649.326 96.9099Z" stroke="#151515"/>
<path d="M614.75 231.793C618.157 239.42 615.57 249.434 607.662 261.132C599.771 272.803 586.672 286.011 569.364 299.929C534.754 327.759 483.403 358.356 423.514 385.111C363.626 411.865 306.572 429.696 262.749 436.904C240.834 440.509 222.256 441.452 208.298 439.542C194.308 437.627 185.123 432.871 181.716 425.244C178.308 417.618 180.896 407.603 188.804 395.905C196.695 384.234 209.793 371.026 227.101 357.109C261.712 329.278 313.063 298.681 372.951 271.927C432.839 245.172 489.893 227.341 533.717 220.133C555.632 216.528 574.21 215.585 588.168 217.496C602.157 219.41 611.343 224.166 614.75 231.793Z" stroke="#151515"/>
<circle cx="342" cy="119.007" r="18.5" fill="white" stroke="#151515"/>
<circle cx="660" cy="244" r="20" fill="#F3F3F3"/>
<circle cx="27.5" cy="246.507" r="22.5" fill="#C4C4C4"/>
<path fill-rule="evenodd" clip-rule="evenodd" d="M609.015 423.396L600 421.757L609.096 420.103L610.75 411.007L612.389 420.022L621.5 421.757L612.47 423.477L610.75 432.507L609.015 423.396Z" fill="#151515"/>
<path fill-rule="evenodd" clip-rule="evenodd" d="M96.7715 74.056L80 71.0066L96.9234 67.9296L100 51.0068L103.05 67.7779L120 71.0066L103.2 74.2066L100 91.0068L96.7715 74.056Z" fill="#D1966B"/>
<path fill-rule="evenodd" clip-rule="evenodd" d="M462.057 88.8567L474.816 83.1262L474.884 97.1892L479.992 84.084L489.848 94.011L484.117 81.251L498.182 81.1834L485.197 76.1225L495.003 66.2208L482.125 71.8761L482.174 57.8867L477.204 70.9612L467.212 61.0647L472.867 73.9426L458.879 73.8928L472.076 78.9093L462.057 88.8567Z" fill="#151515"/>
</svg>
