<svg width="264" height="176" viewBox="0 0 264 176" fill="none" xmlns="http://www.w3.org/2000/svg">
<g clip-path="url(#clip0_741_4942)">
<path d="M256.206 21.9175C258.773 26.918 258.081 33.3917 254.445 40.91C250.813 48.4189 244.287 56.8767 235.365 65.7564C217.524 83.5114 190.19 102.87 157.587 119.608C124.984 136.346 93.3214 147.276 68.496 151.425C56.0804 153.5 45.4037 153.874 37.1855 152.448C28.9569 151.021 23.2929 147.811 20.7257 142.811C18.1585 137.81 18.8509 131.336 22.487 123.818C26.1185 116.309 32.645 107.851 41.5672 98.9717C59.4073 81.2167 86.742 61.8576 119.345 45.1196C151.948 28.3816 183.61 17.4522 208.436 13.3033C220.851 11.2283 231.528 10.8542 239.746 12.2796C247.975 13.7068 253.639 16.9171 256.206 21.9175Z" stroke="#151515"/>
<path d="M245.475 82.3327C246.771 85.2335 245.815 89.1185 242.665 93.7777C239.533 98.4108 234.319 103.672 227.407 109.23C213.588 120.342 193.072 132.568 169.134 143.262C145.196 153.956 122.4 161.079 104.903 163.957C96.1505 165.397 88.753 165.769 83.2121 165.011C77.64 164.248 74.1085 162.368 72.8126 159.467C71.5167 156.566 72.4726 152.681 75.6226 148.022C78.7549 143.389 83.9684 138.128 90.8807 132.569C104.699 121.458 125.216 109.232 149.154 98.5374C173.092 87.8434 195.888 80.7205 213.385 77.8425C222.137 76.4029 229.535 76.0303 235.076 76.7888C240.648 77.5515 244.179 79.4319 245.475 82.3327Z" stroke="#151515"/>
<path d="M195.5 19C195.5 23.6693 191.496 27.5 186.5 27.5C181.504 27.5 177.5 23.6693 177.5 19C177.5 14.3307 181.504 10.5 186.5 10.5C191.496 10.5 195.5 14.3307 195.5 19Z" fill="white" stroke="#151515"/>
<circle cx="37" cy="54" r="11" fill="#C4C4C4"/>
<path fill-rule="evenodd" clip-rule="evenodd" d="M47.7839 10.8384L41.1719 9.63623L47.8438 8.42315L49.0566 1.75244L50.2587 8.3636L56.94 9.63623L50.3182 10.8975L49.0566 17.5205L47.7839 10.8384Z" fill="#D1966B"/>
<path fill-rule="evenodd" clip-rule="evenodd" d="M226.047 20.3331L233.719 16.3867L234.22 25.0461L236.938 16.8078L243.333 22.6L239.387 14.929L248.046 14.428L239.882 11.7348L245.598 5.31631L237.852 9.21947L237.426 0.602906L234.792 8.81699L228.316 3.04893L232.219 10.7956L223.603 11.2218L231.892 13.8797L226.047 20.3331Z" fill="#151515"/>
</g>
<defs>
<clipPath id="clip0_741_4942">
<rect width="264" height="176" fill="white"/>
</clipPath>
</defs>
</svg>
