<svg width="12" height="16" viewBox="0 0 12 16" fill="#151515" xmlns="http://www.w3.org/2000/svg">
<path d="M12.0001 16.0007H10.0001V12.6674C10.0001 12.3137 9.85962 11.9746 9.60957 11.7245C9.35952 11.4745 9.02038 11.334 8.66675 11.334H3.33337C2.97974 11.334 2.6406 11.4745 2.39055 11.7245C2.1405 11.9746 2.00002 12.3137 2.00002 12.6674V16.0007H0V12.6674C0.00105858 11.7836 0.352592 10.9364 0.97749 10.3115C1.60239 9.68658 2.44963 9.33504 3.33337 9.33398H8.66675C9.55049 9.33504 10.3977 9.68658 11.0226 10.3115C11.6475 10.9364 11.9991 11.7836 12.0001 12.6674V16.0007Z"/>
<path d="M6.00004 8.00008C5.20891 8.00008 4.43554 7.76548 3.77774 7.32595C3.11994 6.88642 2.60724 6.2617 2.30449 5.53079C2.00173 4.79988 1.92252 3.99561 2.07686 3.21967C2.2312 2.44374 2.61217 1.731 3.17159 1.17159C3.731 0.612171 4.44374 0.231204 5.21967 0.0768615C5.99561 -0.077481 6.79988 0.00173316 7.53079 0.304487C8.2617 0.60724 8.88642 1.11994 9.32595 1.77774C9.76548 2.43554 10.0001 3.20891 10.0001 4.00004C9.99902 5.06059 9.57725 6.0774 8.82733 6.82733C8.0774 7.57725 7.06059 7.99902 6.00004 8.00008ZM6.00004 2.00002C5.60448 2.00002 5.21779 2.11732 4.88889 2.33709C4.55999 2.55685 4.30364 2.86921 4.15226 3.23467C4.00089 3.60012 3.96128 4.00226 4.03845 4.39023C4.11562 4.77819 4.30611 5.13456 4.58581 5.41427C4.86552 5.69398 5.22189 5.88446 5.60986 5.96163C5.99782 6.0388 6.39996 5.9992 6.76542 5.84782C7.13087 5.69644 7.44323 5.4401 7.663 5.11119C7.88276 4.78229 8.00006 4.39561 8.00006 4.00004C8.00006 3.4696 7.78935 2.96089 7.41427 2.58581C7.03919 2.21074 6.53048 2.00002 6.00004 2.00002Z" />
</svg>
