<svg width="16" height="17" viewBox="0 0 16 17" fill="#151515" xmlns="http://www.w3.org/2000/svg">
<path d="M12.6109 11.8994C13.6718 10.3929 14.1563 8.5154 13.9667 6.6447C13.7772 4.774 12.9277 3.04904 11.5893 1.81705C10.2509 0.585057 8.52288 -0.0624888 6.75318 0.00475861C4.98348 0.072006 3.30345 0.849053 2.05128 2.17948C0.799109 3.50991 0.0677704 5.29494 0.0044787 7.17525C-0.058813 9.05556 0.550642 10.8915 1.71016 12.3136C2.86968 13.7357 4.49317 14.6383 6.25383 14.8397C8.01449 15.0411 9.7816 14.5263 11.1994 13.3991L14.5885 17L16 15.5031L12.6109 11.8994ZM7.02884 12.7636C6.0431 12.7636 5.0795 12.453 4.25989 11.8712C3.44027 11.2893 2.80147 10.4623 2.42424 9.49463C2.04701 8.52701 1.94831 7.46226 2.14062 6.43504C2.33293 5.40782 2.80761 4.46426 3.50463 3.72367C4.20165 2.98308 5.08971 2.47874 6.05651 2.27441C7.02331 2.07008 8.02542 2.17495 8.93612 2.57575C9.84683 2.97656 10.6252 3.65529 11.1729 4.52613C11.7205 5.39697 12.0128 6.42079 12.0128 7.46814C12.0116 8.87219 11.4861 10.2184 10.5517 11.2112C9.61727 12.204 8.35029 12.7623 7.02884 12.7636Z"/>
</svg>