<svg width="38" height="38" viewBox="0 0 38 38"  fill="#D1966B" xmlns="http://www.w3.org/2000/svg">
<path fill-rule="evenodd" clip-rule="evenodd" d="M38 19C38 29.4934 29.4934 38 19 38C8.50659 38 0 29.4934 0 19C0 8.50659 8.50659 0 19 0C29.4934 0 38 8.50659 38 19ZM19.654 26.1215H18.3416C18.3416 26.1215 15.4459 26.3096 12.896 23.4458C10.1151 20.3223 7.65906 14.124 7.65906 14.124C7.65906 14.124 7.51748 13.7176 7.67128 13.5211C7.84416 13.3002 8.3151 13.2861 8.3151 13.2861L11.4522 13.2639C11.4522 13.2639 11.7479 13.3173 11.9595 13.4848C12.1339 13.6231 12.2316 13.8816 12.2316 13.8816C12.2316 13.8816 12.7386 15.2647 13.4102 16.5161C14.7207 18.959 15.3312 19.4934 15.7762 19.2317C16.4245 18.85 16.2301 15.7782 16.2301 15.7782C16.2301 15.7782 16.2421 14.6632 15.9038 14.1667C15.6418 13.7819 15.1476 13.6697 14.9294 13.6382C14.7529 13.6128 15.0427 13.1707 15.4182 12.9723C15.9827 12.6739 16.9798 12.6569 18.1577 12.6701C19.0754 12.68 19.3395 12.7418 19.6984 12.8353C20.531 13.0522 20.505 13.7471 20.449 15.2463C20.4323 15.6943 20.4128 16.2141 20.4128 16.8145C20.4128 16.9495 20.4092 17.0935 20.4054 17.2416C20.386 18.0095 20.3637 18.8886 20.8322 19.2153C21.0724 19.3825 21.6602 19.2403 23.1303 16.5476C23.8271 15.2715 24.3496 13.771 24.3496 13.771C24.3496 13.771 24.4638 13.5034 24.6411 13.3887C24.8227 13.2716 25.0674 13.3076 25.0674 13.3076L28.3687 13.2855C28.3687 13.2855 29.3607 13.1578 29.5213 13.6407C29.6897 14.1478 29.1505 15.3316 27.8018 17.2707C26.5157 19.1198 25.8934 19.7946 25.9578 20.396C26.0043 20.8301 26.4086 21.226 27.1794 21.9977C28.8045 23.6248 29.2376 24.4791 29.3405 24.6822C29.3488 24.6986 29.355 24.7108 29.3595 24.7187C30.0867 26.0196 28.5529 26.1215 28.5529 26.1215L25.6209 26.1656C25.6209 26.1656 24.9908 26.3003 24.1616 25.6859C23.7279 25.3648 23.304 24.8405 22.9 24.341C22.2825 23.5774 21.7118 22.8716 21.2248 23.0382C20.4075 23.3179 20.4331 25.2174 20.4331 25.2174C20.4331 25.2174 20.4391 25.6232 20.2528 25.8392C20.0504 26.0746 19.654 26.1215 19.654 26.1215Z"/>
</svg>
