<svg width="38" height="38" viewBox="0 0 38 38"  fill="#D1966B" xmlns="http://www.w3.org/2000/svg">
<path d="M16.6338 22.5596L22.8142 19L16.6338 15.4404V22.5596Z"/>
<path d="M19 0C8.50819 0 0 8.50819 0 19C0 29.4918 8.50819 38 19 38C29.4918 38 38 29.4918 38 19C38 8.50819 29.4918 0 19 0ZM30.8721 19.0194C30.8721 19.0194 30.8721 22.8727 30.3833 24.7308C30.1093 25.7478 29.3074 26.5497 28.2904 26.8234C26.4323 27.3125 19 27.3125 19 27.3125C19 27.3125 11.5871 27.3125 9.70961 26.804C8.69258 26.5303 7.89067 25.7281 7.6167 24.7111C7.12761 22.8727 7.12761 19 7.12761 19C7.12761 19 7.12761 15.147 7.6167 13.2889C7.89038 12.2719 8.71201 11.4503 9.70961 11.1766C11.5677 10.6875 19 10.6875 19 10.6875C19 10.6875 26.4323 10.6875 28.2904 11.196C29.3074 11.4697 30.1093 12.2719 30.3833 13.2889C30.8918 15.147 30.8721 19.0194 30.8721 19.0194Z"/>
</svg>
