<svg width="410" height="560" viewBox="0 0 410 560" fill="none" xmlns="http://www.w3.org/2000/svg">
<mask id="mask0_1557_5498" style="mask-type:alpha" maskUnits="userSpaceOnUse" x="0" y="0" width="410" height="560">
<rect width="410" height="560" fill="#F3F3F3"/>
</mask>
<g mask="url(#mask0_1557_5498)">
<path d="M-14.5484 -14.8543C-13.1656 -1.60659 -5.83327 11.4577 6.31735 23.7525C18.4707 36.05 35.4235 47.5539 55.9801 57.6537C97.092 77.8528 152.527 92.391 212.533 96.4547C272.54 100.518 325.707 93.3349 363.158 78.4562C381.884 71.0166 396.659 61.6613 406.4 50.8465C416.138 40.0341 420.828 27.784 419.445 14.5362C418.063 1.28847 410.73 -11.7759 398.58 -24.0706C386.426 -36.3681 369.474 -47.872 348.917 -57.9719C307.805 -78.1709 252.37 -92.7091 192.364 -96.7728C132.357 -100.836 79.1897 -93.653 41.7393 -78.7743C23.0136 -71.3347 8.23815 -61.9795 -1.50271 -51.1646C-11.2413 -40.3523 -15.9312 -28.1021 -14.5484 -14.8543Z" stroke="#C4C4C4"/>
<path d="M69.4785 104.19C70.3572 112.609 75.0456 120.927 82.8484 128.773C90.654 136.623 101.554 143.976 114.788 150.439C141.253 163.363 176.958 172.679 215.622 175.297C254.287 177.916 288.542 173.338 312.666 163.839C324.73 159.09 334.239 153.119 340.505 146.222C346.769 139.328 349.776 131.531 348.897 123.113C348.018 114.695 343.33 106.377 335.527 98.5301C327.721 90.6807 316.821 83.3273 303.588 76.8648C277.122 63.9405 241.417 54.6245 202.753 52.0062C164.089 49.3878 129.834 53.9659 105.709 63.4642C93.6459 68.2136 84.1366 74.1849 77.8702 81.0813C71.606 87.9753 68.5998 95.7721 69.4785 104.19Z" stroke="#C4C4C4"/>
</g>
</svg>
