<svg width="410" height="560" viewBox="0 0 410 560" fill="none" xmlns="http://www.w3.org/2000/svg">
<mask id="mask0_1557_5755" style="mask-type:alpha" maskUnits="userSpaceOnUse" x="0" y="0" width="410" height="560">
<rect width="410" height="560" fill="#F3F3F3"/>
</mask>
<g mask="url(#mask0_1557_5755)">
<path d="M-5.65248 150.254C0.670276 163.873 13.8913 173.615 32.4987 179.527C51.1063 185.439 75.0484 187.501 102.703 185.791C158.01 182.371 228.056 163.871 299.721 131.084C371.385 98.2972 431.057 57.4506 469.603 17.9324C488.878 -1.828 502.852 -21.2368 510.412 -39.1205C517.972 -57.004 519.099 -73.3106 512.776 -86.9292C506.453 -100.548 493.232 -110.29 474.625 -116.202C456.017 -122.114 432.075 -124.176 404.42 -122.466C349.114 -119.046 279.067 -100.546 207.403 -67.759C135.739 -34.9723 76.0669 5.87438 37.5201 45.3926C18.2454 65.153 4.27175 84.5618 -3.28819 102.445C-10.848 120.329 -11.9752 136.636 -5.65248 150.254Z" stroke="#151515"/>
<path d="M134.95 228.274C138.967 236.926 147.408 243.119 159.349 246.865C171.289 250.611 186.676 251.89 204.471 250.745C240.058 248.457 285.168 236.485 331.352 215.356C377.536 194.227 416.008 167.959 440.878 142.588C453.315 129.901 462.331 117.458 467.219 106.013C472.107 94.5678 472.847 84.1737 468.83 75.522C464.813 66.8702 456.372 60.6767 444.431 56.9308C432.49 53.1849 417.104 51.9061 399.308 53.0504C363.722 55.3388 318.612 67.3105 272.428 88.4398C226.244 109.569 187.772 135.837 162.901 161.208C150.465 173.895 141.449 186.338 136.561 197.783C131.673 209.228 130.933 219.622 134.95 228.274Z" stroke="#151515"/>
</g>
</svg>
