<svg width="410" height="566" viewBox="0 0 410 566" fill="none" xmlns="http://www.w3.org/2000/svg">
<mask id="mask0_1557_5332" style="mask-type:alpha" maskUnits="userSpaceOnUse" x="0" y="0" width="410" height="566">
<rect width="410" height="566" fill="#F3F3F3"/>
</mask>
<g mask="url(#mask0_1557_5332)">
<path d="M9.31137 -91.3573C3.19349 -77.516 4.50469 -61.0469 12.2182 -43.0625C19.932 -25.0775 34.0298 -5.62688 53.3935 14.1167C92.1184 53.6013 151.828 94.1802 223.346 126.472C294.865 158.765 364.611 176.637 419.548 179.443C447.018 180.846 470.758 178.48 489.159 172.287C507.559 166.093 520.571 156.091 526.689 142.25C532.806 128.408 531.495 111.939 523.782 93.9548C516.068 75.9698 501.97 56.5191 482.606 36.7756C443.882 -2.70909 384.172 -43.288 312.654 -75.5802C241.135 -107.872 171.389 -125.745 116.452 -128.551C88.9822 -129.954 65.2416 -127.588 46.8408 -121.394C28.4407 -115.201 15.4292 -105.199 9.31137 -91.3573Z" stroke="#151515"/>
<path d="M42.5007 66.7346C38.6135 75.5291 39.4713 86.0272 44.4572 97.5361C49.4432 109.045 58.5383 121.515 71.0312 134.19C96.0146 159.538 134.51 185.632 180.6 206.442C226.69 227.253 271.606 238.821 306.956 240.715C324.633 241.662 339.89 240.188 351.699 236.262C363.507 232.336 371.816 225.977 375.703 217.182C379.59 208.388 378.732 197.89 373.746 186.381C368.76 174.872 359.665 162.402 347.172 149.727C322.189 124.379 283.693 98.2853 237.603 77.4748C191.514 56.6642 146.598 45.0962 111.248 43.2022C93.5709 42.2551 78.3133 43.7285 66.5047 47.6547C54.6966 51.5807 46.3879 57.94 42.5007 66.7346Z" stroke="#151515"/>
</g>
</svg>
