<svg width="16" height="16" viewBox="0 0 16 16" fill="none" xmlns="http://www.w3.org/2000/svg">
<circle cx="8" cy="8" r="8" fill="#D1966B"/>
<path opacity="0.6" d="M12.4095 9.36289C12.4095 10.5788 11.4168 11.5637 10.1803 11.5681H10.1759H5.78397C4.55192 11.5681 3.5459 10.5875 3.5459 9.3716V9.36724C3.5459 9.36724 3.54856 7.43837 3.5521 6.46827C3.55255 6.2861 3.76527 6.18413 3.91019 6.29744C4.96319 7.11893 6.84627 8.61679 6.86976 8.6364C7.18442 8.88437 7.58328 9.02427 7.99101 9.02427C8.39874 9.02427 8.7976 8.88437 9.11226 8.63161C9.13575 8.61635 10.9767 7.16338 12.0457 6.32838C12.191 6.21463 12.4047 6.31661 12.4051 6.49834C12.4095 7.46103 12.4095 9.36289 12.4095 9.36289Z" fill="white"/>
<path d="M12.3626 4.73914C11.9602 4.0383 11.1683 3.59082 10.2966 3.59082H5.65887C4.78709 3.59082 3.99524 4.0383 3.59281 4.73914C3.50266 4.89589 3.54541 5.09128 3.69551 5.20208L7.1459 7.75252C7.38755 7.93289 7.68031 8.02264 7.97307 8.02264C7.97493 8.02264 7.97632 8.02264 7.97772 8.02264C7.97911 8.02264 7.98097 8.02264 7.98236 8.02264C8.27512 8.02264 8.56788 7.93289 8.80953 7.75252L12.2599 5.20208C12.41 5.09128 12.4528 4.89589 12.3626 4.73914Z" fill="white"/>
</svg>
