<svg width="16" height="16" viewBox="0 0 16 16" fill="none" xmlns="http://www.w3.org/2000/svg">
<circle cx="8" cy="8" r="8" fill="#D1966B"/>
<path opacity="0.6" d="M9.04865 5.09216C8.83768 5.05319 8.64392 5.18783 8.60375 5.39376C8.56359 5.5997 8.69865 5.80077 8.90388 5.84107C9.5218 5.96154 9.99891 6.43985 10.1198 7.05988V7.06032C10.1543 7.2388 10.3114 7.36856 10.4924 7.36856C10.5166 7.36856 10.5409 7.36635 10.5656 7.36192C10.7709 7.32073 10.9059 7.12011 10.8658 6.91373C10.6852 5.98767 9.97243 5.27242 9.04865 5.09216Z" fill="white"/>
<path opacity="0.6" d="M9.02121 3.54892C8.92234 3.53475 8.82304 3.56398 8.74403 3.62687C8.66282 3.69065 8.61206 3.78276 8.60103 3.88596C8.57764 4.09455 8.72814 4.28322 8.93647 4.30669C10.3731 4.46701 11.4898 5.58617 11.6513 7.0273C11.6729 7.2204 11.8349 7.3661 12.0282 7.3661C12.0428 7.3661 12.0569 7.36522 12.0715 7.36345C12.1726 7.35237 12.2626 7.30233 12.3262 7.22261C12.3893 7.14289 12.418 7.04369 12.4065 6.94227C12.2052 5.14418 10.8136 3.74866 9.02121 3.54892Z" fill="white"/>
<path d="M10.4616 9.16193C10.1743 9.10082 9.947 9.23368 9.74574 9.34971C9.53962 9.46929 9.14724 9.78595 8.92303 9.70446C7.77283 9.23324 6.69104 8.23011 6.22274 7.0804C6.14021 6.85143 6.45667 6.4586 6.5754 6.25133C6.69148 6.05026 6.82212 5.82129 6.76254 5.53342C6.70869 5.27434 6.01221 4.39168 5.76593 4.15031C5.60306 3.99087 5.43711 3.90318 5.2663 3.88857C4.62411 3.86155 3.90689 4.71498 3.7811 4.91915C3.46552 5.3545 3.46773 5.93378 3.7864 6.63619C4.55438 8.52286 7.45901 11.3701 9.36042 12.1638C9.71087 12.3272 10.0322 12.4091 10.3204 12.4091C10.6024 12.4091 10.8536 12.3307 11.0694 12.1753C11.2318 12.0818 12.1243 11.332 12.1004 10.6753C12.0868 10.5078 11.9989 10.3404 11.8409 10.1783C11.5999 9.93077 10.7198 9.21641 10.4616 9.16193Z" fill="white"/>
</svg>
